<?xml version="1.0" encoding="UTF-8" standalone="no"?>
<svg
   viewBox="0 0 3540 3546"
   x="0px"
   y="0px"
   version="1.1"
   id="svg10"
   width="3540"
   height="3546"
   xmlns="http://www.w3.org/2000/svg"
   xmlns:svg="http://www.w3.org/2000/svg">
  <defs
     id="defs10" />
  <path
     d="m 1515.9329,128.32763 a 1824.5997,1824.5997 0 0 0 -90.7497,367.71314 c -45.3749,253.98133 -92.5176,516.80193 -331.7668,698.89073 A 568.24645,568.24645 0 0 1 533.59662,1252.092 2856.2001,2856.2001 0 0 1 931.95253,851.379 176.80974,176.80974 0 0 0 715.09606,572.05839 2969.9908,2969.9908 0 0 0 309.66874,968.0572 479.55923,479.55923 0 0 1 293.16879,824.8612 613.20881,613.20881 0 0 1 531.82877,370.5233 C 794.64938,164.86323 1134.077,123.02407 1367.4334,123.02407 c 56.5712,0 106.6604,2.35714 148.4995,5.30356 z"
     id="path1"
     style="fill:#ffffff;stroke-width:58.9284" />
  <path
     d="m 450.80223,2837.8549 a 187.92263,187.92263 0 0 1 -87.44973,-66.589 785.04399,785.04399 0 0 0 -11.25532,132.5888 512.67698,512.67698 0 0 0 187.51014,394.8202 320.86508,320.86508 0 0 1 -10.72497,-81.7336 391.87379,391.87379 0 0 1 134.47458,-302.6562 l 11.78568,-12.0804 c 66.11765,-68.0623 87.21401,-101.4157 90.27829,-176.7851 a 71.362279,71.362279 0 0 1 108.66395,-58.1624 v 0 a 515.68233,515.68233 0 0 1 220.74575,302.5384 74.662269,74.662269 0 0 1 16.1464,-4.5964 70.714066,70.714066 0 0 1 70.7141,31.1731 333.88825,333.88825 0 0 1 54.332,183.6209 349.91677,349.91677 0 0 1 -25.3982,130.4085 513.56091,513.56091 0 0 0 202.1833,-406.547 696.53355,696.53355 0 0 0 -71.8337,-304.1294 195.28868,195.28868 0 0 1 -78.139,92.5765 58.928389,58.928389 0 0 1 -84.9748,-42.9588 872.4348,872.4348 0 0 0 -330.35255,-553.2197 c -18.6803,161.9352 -86.21224,257.3992 -217.38683,392.7577 a 357.57746,357.57746 0 0 0 -102.00504,283.9759 58.928389,58.928389 0 0 1 -77.31405,64.8212 z"
     id="path2"
     style="fill:#ffffff;stroke-width:58.9284" />
  <path
     d="m 2709.2328,2164.2445 a 1865.3192,1865.3192 0 0 1 -213.2619,372.3685 c -94.2854,137.0085 -175.3119,255.3956 -194.994,401.0077 a 437.83793,437.83793 0 0 0 93.0479,332.474 401.06661,401.06661 0 0 0 282.8563,151.0924 406.07553,406.07553 0 0 0 311.2597,-108.1926 420.80762,420.80762 0 0 0 133.5907,-307.9008 c 0,-177.8459 -92.4586,-312.3205 -199.5315,-468.4807 a 1866.9692,1866.9692 0 0 1 -212.9672,-372.3685 z m -19.9178,1140.3233 c -1.4143,0 -2.9464,0 -4.4196,0 a 292.69731,292.69731 0 0 1 -270.3046,-296.1741 57.160537,57.160537 0 0 1 60.5195,-57.3963 58.928389,58.928389 0 0 1 57.3373,60.4606 168.18162,168.18162 0 0 0 38.3624,110.4907 173.01375,173.01375 0 0 0 122.8068,64.7623 58.967641,58.967641 0 0 1 -4.3018,117.8568 z"
     id="path3"
     style="fill:#ffffff;stroke-width:58.9284" />
  <path
     d="m 1118.1663,3179.9932 a 227.58144,227.58144 0 0 0 -2.7107,-35.3571 71.774777,71.774777 0 0 1 -120.3318,-49.7355 399.71126,399.71126 0 0 0 -123.74966,-282.0313 387.10059,387.10059 0 0 1 -111.61036,171.3048 l -12.66961,12.9053 a 275.07772,275.07772 0 0 0 -100.35504,219.8619 210.78685,210.78685 0 0 0 223.92787,203.8922 244.49388,244.49388 0 0 0 247.4993,-240.8403 z"
     id="path4"
     style="fill:#ffffff;stroke-width:58.9284" />
  <path
     d="M 3475.3018,1713.5013 H 1825.307 V 63.50639 a 58.9284,58.9284 0 0 0 -117.8568,0 V 1713.5013 H 57.455243 a 58.9284,58.9284 0 0 0 0,117.8568 H 1707.4502 v 1649.9948 a 58.9284,58.9284 0 0 0 117.8568,0 V 1831.3581 h 1649.9948 a 58.9284,58.9284 0 0 0 0,-117.8568 z"
     id="path5"
     style="fill:#ffffff;stroke-width:58.9284" />
  <path
     d="m 175.31202,1536.7161 a 58.928389,58.928389 0 0 1 -52.62305,-85.2694 C 339.95793,1016.7909 769.25125,679.48485 787.40119,665.22418 a 58.932265,58.932265 0 0 1 72.42299,92.98902 c -4.24284,3.3 -426.58261,335.5382 -631.71233,745.9155 a 58.928389,58.928389 0 0 1 -52.79983,32.5874 z"
     id="path6"
     style="fill:#ffffff;stroke-width:58.9284" />
  <path
     d="m 2650.3044,652.79029 h -648.2123 a 58.92839,58.92839 0 0 1 0,-117.85678 h 648.2123 a 176.78517,176.78517 0 1 0 -176.7852,-176.78517 58.9284,58.9284 0 0 1 -117.8568,0 294.64194,294.64194 0 1 1 294.642,294.64195 z"
     id="path7"
     style="fill:#ffffff;stroke-width:58.9284" />
  <path
     d="m 2473.5192,1595.6445 a 294.99551,294.99551 0 0 1 -294.6419,-294.6419 58.9284,58.9284 0 0 1 117.8568,0 176.78517,176.78517 0 1 0 176.7851,-176.7852 h -471.4271 a 58.9284,58.9284 0 0 1 0,-117.8568 h 471.4271 a 294.64195,294.64195 0 0 1 0,589.2839 z"
     id="path8"
     style="fill:#ffffff;stroke-width:58.9284" />
  <path
     d="m 3180.6599,1359.9309 a 294.99551,294.99551 0 0 1 -294.642,-294.6419 58.9284,58.9284 0 0 1 117.8568,0 176.78517,176.78517 0 1 0 176.7852,-176.7852 H 2002.0921 a 58.92839,58.92839 0 0 1 0,-117.8567 h 1178.5678 a 294.64194,294.64194 0 0 1 0,589.2838 z"
     id="path9"
     style="fill:#ffffff;stroke-width:58.9284" />
</svg>
