<?xml version="1.0" encoding="UTF-8" standalone="no"?>
<svg
   viewBox="0 0 60 60"
   x="0px"
   y="0px"
   version="1.1"
   id="svg10"
   sodipodi:docname="noun-four-elements-6448400.svg"
   width="60"
   height="60"
   inkscape:version="1.3.2 (091e20e, 2023-11-25, custom)"
   xmlns:inkscape="http://www.inkscape.org/namespaces/inkscape"
   xmlns:sodipodi="http://sodipodi.sourceforge.net/DTD/sodipodi-0.dtd"
   xmlns="http://www.w3.org/2000/svg"
   xmlns:svg="http://www.w3.org/2000/svg">
  <defs
     id="defs10" />
  <sodipodi:namedview
     id="namedview10"
     pagecolor="#ffffff"
     bordercolor="#111111"
     borderopacity="1"
     inkscape:showpageshadow="0"
     inkscape:pageopacity="0"
     inkscape:pagecheckerboard="1"
     inkscape:deskcolor="#d1d1d1"
     inkscape:zoom="15.64"
     inkscape:cx="30.019182"
     inkscape:cy="21.003836"
     inkscape:window-width="2560"
     inkscape:window-height="1369"
     inkscape:window-x="-8"
     inkscape:window-y="-8"
     inkscape:window-maximized="1"
     inkscape:current-layer="svg10" />
  <path
     d="m 25.75,2.1 a 30.963,30.963 0 0 0 -1.54,6.24 c -0.77,4.31 -1.57,8.77 -5.63,11.86 a 9.643,9.643 0 0 1 -9.5,0.97 48.469,48.469 0 0 1 6.76,-6.8 A 3.0004166,3.0004166 0 0 0 12.16,9.63 50.4,50.4 0 0 0 5.28,16.35 8.138,8.138 0 0 1 5,13.92 10.406,10.406 0 0 1 9.05,6.21 c 4.46,-3.49 10.22,-4.2 14.18,-4.2 0.96,0 1.81,0.04 2.52,0.09 z"
     id="path1"
     style="fill:#ffffff" />
  <path
     d="M 7.675,48.08 A 3.189,3.189 0 0 1 6.191,46.95 13.322,13.322 0 0 0 6,49.2 8.7,8.7 0 0 0 9.182,55.9 5.445,5.445 0 0 1 9,54.513 6.65,6.65 0 0 1 11.282,49.377 l 0.2,-0.205 c 1.122,-1.155 1.48,-1.721 1.532,-3 a 1.211,1.211 0 0 1 1.844,-0.987 v 0 a 8.751,8.751 0 0 1 3.746,5.134 1.267,1.267 0 0 1 0.274,-0.078 1.2,1.2 0 0 1 1.2,0.529 A 5.666,5.666 0 0 1 21,53.886 5.938,5.938 0 0 1 20.569,56.099 8.715,8.715 0 0 0 24,49.2 11.82,11.82 0 0 0 22.781,44.039 3.314,3.314 0 0 1 21.455,45.61 1,1 0 0 1 20.013,44.881 14.805,14.805 0 0 0 14.407,35.493 c -0.317,2.748 -1.463,4.368 -3.689,6.665 a 6.068,6.068 0 0 0 -1.731,4.819 1,1 0 0 1 -1.312,1.1 z"
     id="path2"
     style="fill:#ffffff" />
  <path
     d="m 46,36.649 a 31.654,31.654 0 0 1 -3.619,6.319 c -1.6,2.325 -2.975,4.334 -3.309,6.805 a 7.43,7.43 0 0 0 1.579,5.642 6.806,6.806 0 0 0 4.8,2.564 6.891,6.891 0 0 0 5.282,-1.836 A 7.141,7.141 0 0 0 53,50.918 c 0,-3.018 -1.569,-5.3 -3.386,-7.95 A 31.682,31.682 0 0 1 46,36.649 Z M 45.662,56 c -0.024,0 -0.05,0 -0.075,0 A 4.967,4.967 0 0 1 41,50.974 0.97,0.97 0 0 1 42.027,50 1,1 0 0 1 43,51.026 2.854,2.854 0 0 0 43.651,52.901 2.936,2.936 0 0 0 45.735,54 1.0006659,1.0006659 0 0 1 45.662,56 Z"
     id="path3"
     style="fill:#ffffff" />
  <path
     d="m 19,53.886 a 3.862,3.862 0 0 0 -0.046,-0.6 1.218,1.218 0 0 1 -2.042,-0.844 6.783,6.783 0 0 0 -2.1,-4.786 6.569,6.569 0 0 1 -1.894,2.907 l -0.215,0.219 A 4.668,4.668 0 0 0 11,54.513 a 3.577,3.577 0 0 0 3.8,3.46 4.149,4.149 0 0 0 4.2,-4.087 z"
     id="path4"
     style="fill:#ffffff" />
  <path
     d="M 59,29 H 31 V 1 A 1,1 0 0 0 29,1 V 29 H 1 a 1,1 0 0 0 0,2 h 28 v 28 a 1,1 0 0 0 2,0 V 31 h 28 a 1,1 0 0 0 0,-2 z"
     id="path5"
     style="fill:#ffffff" />
  <path
     d="M 3,26 A 1,1 0 0 1 2.107,24.553 c 3.687,-7.376 10.972,-13.1 11.28,-13.342 a 1.0000656,1.0000656 0 0 1 1.229,1.578 C 14.544,12.845 7.377,18.483 3.896,25.447 A 1,1 0 0 1 3,26 Z"
     id="path6"
     style="fill:#ffffff" />
  <path
     d="M 45,11 H 34 a 1,1 0 0 1 0,-2 h 11 a 3,3 0 1 0 -3,-3 1,1 0 0 1 -2,0 5,5 0 1 1 5,5 z"
     id="path7"
     style="fill:#ffffff" />
  <path
     d="m 42,27 a 5.006,5.006 0 0 1 -5,-5 1,1 0 0 1 2,0 3,3 0 1 0 3,-3 h -8 a 1,1 0 0 1 0,-2 h 8 a 5,5 0 0 1 0,10 z"
     id="path8"
     style="fill:#ffffff" />
  <path
     d="m 54,23 a 5.006,5.006 0 0 1 -5,-5 1,1 0 0 1 2,0 3,3 0 1 0 3,-3 H 34 a 1,1 0 0 1 0,-2 h 20 a 5,5 0 0 1 0,10 z"
     id="path9"
     style="fill:#ffffff" />
  <text
     x="0"
     y="80"
     fill="#000000"
     font-size="5px"
     font-weight="bold"
     font-family="'Helvetica Neue', Helvetica, Arial-Unicode, Arial, Sans-serif"
     id="text10">from the Noun Project</text>
</svg>
