<?xml version="1.0" encoding="UTF-8" standalone="no"?>
<svg
   version="1.1"
   viewBox="-5 -10 90 100"
   id="svg6"
   sodipodi:docname="four-leaf-clover.svg"
   width="90"
   height="100"
   inkscape:version="1.3.2 (091e20e, 2023-11-25, custom)"
   xmlns:inkscape="http://www.inkscape.org/namespaces/inkscape"
   xmlns:sodipodi="http://sodipodi.sourceforge.net/DTD/sodipodi-0.dtd"
   xmlns="http://www.w3.org/2000/svg"
   xmlns:svg="http://www.w3.org/2000/svg">
  <defs
     id="defs6" />
  <sodipodi:namedview
     id="namedview6"
     pagecolor="#ffffff"
     bordercolor="#111111"
     borderopacity="1"
     inkscape:showpageshadow="0"
     inkscape:pageopacity="0"
     inkscape:pagecheckerboard="1"
     inkscape:deskcolor="#d1d1d1"
     inkscape:zoom="8.6888889"
     inkscape:cx="54.955243"
     inkscape:cy="67.5"
     inkscape:window-width="2560"
     inkscape:window-height="1369"
     inkscape:window-x="-8"
     inkscape:window-y="-8"
     inkscape:window-maximized="1"
     inkscape:current-layer="svg6" />
  <g
     id="g5"
     transform="translate(-10,-10)"
     style="fill:#ffffff">
    <path
       d="m 43.801,71.102 c 0,0 -0.60156,-9 7.1016,-24.301 0.5,-1 -1,-1.8008 -1.6016,-0.89844 -2.3984,3.6992 -5.6016,9 -8.3984,16.898 0,0 -6.3008,18.398 1.5,33.699 0.60156,1.1016 1.8984,1.6016 3.1016,1.1016 l 5.3984,-2.3984 c 0.5,-0.19922 0.69922,-0.89844 0.39844,-1.3984 -1.8008,-2.4062 -7.4023,-10.504 -7.5,-22.703 z"
       id="path1"
       style="fill:#ffffff" />
    <path
       d="m 74.398,50.602 -16,-9.5 c 3.5,3.5 10.199,11.801 9.1992,22.5 0,0 -1.1992,-12.602 -13.398,-22.301 0,0.10156 -0.10156,0.19922 -0.10156,0.19922 l -5.3984,18.602 c 0,0 -3.1992,10.801 3.6016,15.5 0.10156,0 0.10156,0.10156 0.19922,0.10156 0.89844,0.5 7.3984,4 12.699,-0.89844 0,0 1.5,-1.3984 2.3984,-4 0.5,-1.3984 2.1992,-1.8984 3.3008,-0.89844 1.6992,1.6016 4.3008,3 7.6992,2.6992 h 0.19922 c 0.80078,-0.10156 7.6992,-1.5 7,-9.6992 0.0039,-0.0078 -0.09766,-5.707 -11.398,-12.305 z"
       id="path2"
       style="fill:#ffffff" />
    <path
       d="m 85.699,32.801 c -1,-0.39844 -1.3984,-1.5 -1.1016,-2.5 1.3008,-4 -1,-7.6992 -1.3008,-8.3008 l -0.10156,-0.10156 c -5.6016,-7.6016 -13.602,-3.6992 -14.602,-3.1992 -0.10156,0 -0.10156,0.10156 -0.19922,0.10156 -5.3984,3.5 -8.6016,10.102 -10.199,14.102 12.898,-4.3984 22,-0.19922 22,-0.19922 -13.195,-2.2031 -20.297,2.5977 -22.297,4.2969 0.10156,0.10156 0.19922,0.19922 0.30078,0.30078 l 10.102,7.1016 c 7.6016,5.6992 14,5.6992 14,5.6992 9.3984,0.30078 9.3984,-7.6016 9.3984,-7.6016 0.10156,-6.1016 -3.5977,-8.6992 -6,-9.6992 z"
       id="path3"
       style="fill:#ffffff" />
    <path
       d="m 30.5,19.5 21.699,15.398 c 3.1016,-14.102 -6.6992,-24.199 -6.6992,-24.199 9.6016,8.3984 10.398,18 10.199,22.699 l 5.6016,-13.602 c 0,0 3.8984,-9.3984 -4.5,-14.699 0,0 -6,-4.1016 -11.801,0.5 -0.80078,0.60156 -1.8008,0.60156 -2.6016,-0.10156 -1.7969,-1.5977 -5.3984,-3.7969 -10.199,-3.0977 h -0.19922 c -0.80078,0.19922 -6.6992,1.6016 -6.8008,8.1992 0.10156,0.0039 -0.19922,5.2031 5.3008,8.9023 z"
       id="path4"
       style="fill:#ffffff" />
    <path
       d="M 40.5,55.5 51.398,40.301 v -0.10156 c -3.1016,-1.6016 -13.699,-6 -28.398,-1 0,0 9.8984,-6.3008 25.102,-3.5 L 27.2,22.80144 c 0,0 -11.699,-7.8984 -17.898,2.8984 0,0.10156 -0.10156,0.10156 -0.10156,0.19922 -0.39844,0.80078 -2.8984,6.8984 1.8008,10.699 0,0 1.8008,1.5 5,2.5 1.3984,0.5 1.8984,2.1992 0.89844,3.3008 -1.1992,1.3984 -2.3008,3.3984 -2.3984,6.3984 v 0.19922 c 0.10156,1.1992 1.1016,11.898 12.898,12.5 h 0.19922 c 1.1016,0.0039 8.2031,-0.29688 12.902,-5.9961 z"
       id="path5"
       style="fill:#ffffff" />
  </g>
</svg>
