<?xml version="1.0" encoding="UTF-8" standalone="no"?>
<svg
   viewBox="0 0 31 28"
   x="0px"
   y="0px"
   version="1.1"
   id="svg2"
   sodipodi:docname="noun-heal-heart-6546336.svg"
   width="31"
   height="28"
   inkscape:version="1.3.2 (091e20e, 2023-11-25, custom)"
   xmlns:inkscape="http://www.inkscape.org/namespaces/inkscape"
   xmlns:sodipodi="http://sodipodi.sourceforge.net/DTD/sodipodi-0.dtd"
   xmlns="http://www.w3.org/2000/svg"
   xmlns:svg="http://www.w3.org/2000/svg">
  <defs
     id="defs2" />
  <sodipodi:namedview
     id="namedview2"
     pagecolor="#ffffff"
     bordercolor="#111111"
     borderopacity="1"
     inkscape:showpageshadow="0"
     inkscape:pageopacity="0"
     inkscape:pagecheckerboard="1"
     inkscape:deskcolor="#d1d1d1"
     inkscape:zoom="29.325"
     inkscape:cx="16.01023"
     inkscape:cy="14.543905"
     inkscape:window-width="2560"
     inkscape:window-height="1369"
     inkscape:window-x="-8"
     inkscape:window-y="-8"
     inkscape:window-maximized="1"
     inkscape:current-layer="svg2" />
  <g
     data-name="heal heart"
     id="g1"
     style="fill:#ffffff"
     transform="translate(0,-2)">
    <path
       d="M 17.62646,15.05518 16,16.68164 14.37354,15.05518 16,13.42871 Z m -3.04052,-3.04053 -1.3003,-1.30029 -1.626,1.62646 1.2998,1.30029 z m 5.75439,0.32617 -1.626,-1.62646 -1.3003,1.30029 1.62647,1.62646 z m -8.68115,5.42871 1.62646,1.62647 1.3003,-1.3003 -1.62647,-1.62646 z m 5.75488,0.32617 1.3003,1.3003 1.62646,-1.62647 -1.30029,-1.30029 z m 9.51136,-0.01013 -8.78168,8.78168 a 3.0317,3.0317 0 0 1 -4.28748,0 L 5.07458,18.08557 C -3.14307,9.8678 7.78235,-1.05762 16,7.1601 24.21765,-1.05762 35.14307,9.8678 26.92542,18.08557 Z m -6.47083,-3.03039 1.43652,-1.43653 a 1.81507,1.81507 0 0 0 0,-2.55517 L 19.9917,9.16357 a 1.8095,1.8095 0 0 0 -2.55518,4.9e-4 L 16,10.60059 14.563,9.16359 a 1.8095,1.8095 0 0 0 -2.55518,4.9e-4 L 10.1089,11.0635 a 1.81507,1.81507 0 0 0 0,2.55517 l 1.4365,1.43653 -1.437,1.437 a 1.80948,1.80948 0 0 0 4.9e-4,2.55517 l 1.89892,1.89893 a 1.80831,1.80831 0 0 0 2.55567,0 L 16,19.50977 l 1.43652,1.43652 a 1.80925,1.80925 0 0 0 2.55567,0 l 1.89892,-1.89893 a 1.80948,1.80948 0 0 0 4.9e-4,-2.55517 l -4.9e-4,-4.9e-4 z"
       id="path1"
       style="fill:#ffffff" />
  </g>
</svg>
