<?xml version="1.0" encoding="UTF-8" standalone="no"?>
<svg
   version="1.1"
   viewBox="-5 -10 110 110"
   id="svg2"
   sodipodi:docname="illusion.svg"
   width="110"
   height="110"
   inkscape:version="1.3.2 (091e20e, 2023-11-25, custom)"
   xmlns:inkscape="http://www.inkscape.org/namespaces/inkscape"
   xmlns:sodipodi="http://sodipodi.sourceforge.net/DTD/sodipodi-0.dtd"
   xmlns="http://www.w3.org/2000/svg"
   xmlns:svg="http://www.w3.org/2000/svg">
  <defs
     id="defs2" />
  <sodipodi:namedview
     id="namedview2"
     pagecolor="#ffffff"
     bordercolor="#111111"
     borderopacity="1"
     inkscape:showpageshadow="0"
     inkscape:pageopacity="0"
     inkscape:pagecheckerboard="1"
     inkscape:deskcolor="#d1d1d1"
     inkscape:zoom="8.6888889"
     inkscape:cx="54.955243"
     inkscape:cy="67.5"
     inkscape:window-width="2560"
     inkscape:window-height="1369"
     inkscape:window-x="-8"
     inkscape:window-y="-8"
     inkscape:window-maximized="1"
     inkscape:current-layer="svg2" />
  <path
     d="m 70.203,77.324 16.188,-13.16 c 0.44922,-0.36719 1,-0.55078 1.5742,-0.55078 0.75781,0 1.5547,0.32031 2.1523,0.95312 0.52734,0.55078 0.82812,1.2773 0.82812,2.0234 0,0.71484 -0.27734,1.3672 -0.76953,1.8398 l -8.1328,7.707 z m 28.879,2.4727 C 98.78122,78.1053 97.332,76.91 95.7812,77.0819 l -12.93,1.2891 c -0.08203,0.03516 -0.16016,0.05859 -0.24219,0.07031 l -16.051,1.5977 c -0.03516,0.01172 -0.07031,0.01172 -0.10547,0.01172 -0.04687,0 -0.08203,-0.01172 -0.11328,-0.02344 l -8.5234,0.85156 -11.539,1.9219 c -0.05859,0.01172 -0.125,0.01172 -0.18359,0.01172 -0.55078,0 -1.0469,-0.40234 -1.1406,-0.95312 -0.10547,-0.63281 0.32031,-1.2305 0.95312,-1.3242 l 11.609,-1.9336 1.4844,-0.3125 5.1758,-1.1055 c 0.08203,-0.01172 0.16016,-0.04687 0.24219,-0.07031 0.18359,-0.04687 0.36719,-0.10547 0.52734,-0.17188 0.11328,-0.04687 0.21875,-0.10156 0.32031,-0.16016 0.125,-0.07031 0.26562,-0.125 0.37891,-0.20703 0.11329,-0.08203 0.21875,-0.14844 0.3125,-0.23047 0.10156,-0.09375 0.20703,-0.17188 0.3125,-0.26562 0.09375,-0.09375 0.18359,-0.18359 0.27734,-0.28906 0.08203,-0.09375 0.16016,-0.19531 0.23047,-0.30078 0.08203,-0.10156 0.16016,-0.21875 0.23047,-0.33203 0.07031,-0.10156 0.11328,-0.20703 0.17188,-0.32031 0.05859,-0.125 0.125,-0.25391 0.17187,-0.39063 0.04688,-0.09375 0.07031,-0.19531 0.09375,-0.30078 0.11328,-0.39062 0.19531,-0.79297 0.19531,-1.2188 0,-0.32031 -0.03516,-0.62109 -0.09375,-0.89844 -0.11328,-0.52734 -0.32031,-1.0234 -0.59766,-1.4609 -0.02344,-0.04687 -0.04687,-0.09375 -0.07031,-0.125 -0.11328,-0.16016 -0.24219,-0.30078 -0.36719,-0.4375 -0.07031,-0.07031 -0.11328,-0.14844 -0.18359,-0.21875 -0.17188,-0.17188 -0.36719,-0.3125 -0.57422,-0.46094 -0.95312,-0.65625 -2.1523,-0.94531 -3.3828,-0.67969 l -2.0938,0.4375 -4.5,0.95312 c -0.14844,0.03516 -0.30078,0.02344 -0.4375,0 -0.03516,0 -0.05859,-0.01172 -0.09375,-0.02344 -0.05859,-0.01172 -0.125,-0.02344 -0.18359,-0.04687 -4.8906,-2.1875 -9.7891,-4.3711 -14.668,-6.5352 -2.8203,-1.2539 -6.0391,-1.5781 -9.043,-0.88672 l -17.453,3.9688 v 23.859 l 6.2578,-2.3594 c 0.91016,-0.35547 1.875,-0.52734 2.8516,-0.52734 0.60938,0 1.2188,0.07031 1.8281,0.20703 l 20.777,4.832 51.094,-9.043 c 1.4023,-0.24219 2.4141,-1.543 2.4141,-3.082 0.0039,-0.22266 -0.0078,-0.41797 -0.03906,-0.60156 z M 10.191,64.1947 H 2.2769 c -0.76953,0 -1.4023,0.63281 -1.4023,1.4141 v 26.473 c 0,0.78516 0.63281,1.418 1.4023,1.418 h 7.9141 c 0.76953,0 1.4023,-0.63281 1.4023,-1.4141 l 0.0039,-26.484 c 0,-0.18359 -0.03516,-0.35547 -0.11328,-0.53906 -0.22266,-0.53125 -0.72656,-0.86719 -1.293,-0.86719 z m 32.977,-14.863 c 0.24219,0.73828 1.0586,1.1406 1.8047,0.89844 l 1.7148,-0.57422 v -39.082 c 0,-2.0469 1.668,-3.7148 3.7266,-3.7148 h 14.738 l -3.7852,-11.383 c -0.19531,-0.59766 -0.75781,-0.97656 -1.3594,-0.97656 -0.14844,0 -0.3125,0.023438 -0.46094,0.070312 l -29.82,9.9414 c -0.35547,0.11328 -0.64453,0.36719 -0.81641,0.70312 -0.17188,0.34375 -0.19531,0.73828 -0.07031,1.0938 z m 7.2461,-40.176 h 31.43 c 0.78125,0 1.4258,0.63281 1.4258,1.4141 v 45.352 c 0,0.78125 -0.64453,1.4141 -1.4258,1.4141 l -31.43,0.0039 c -0.78125,0 -1.4258,-0.63281 -1.4258,-1.4141 v -45.352 c 0,-0.78516 0.64453,-1.418 1.4258,-1.418 z m 8.6406,24.094 c 0,3.8984 3.1758,7.0742 7.0742,7.0742 3.8984,0 7.0742,-3.1758 7.0742,-7.0742 0,-3.8984 -3.1758,-7.0742 -7.0742,-7.0742 -3.8984,-0.0039 -7.0742,3.1719 -7.0742,7.0742 z M 52.418,21.8007 c 0.16016,0.08203 0.34375,0.125 0.51953,0.125 0.41406,0 0.82812,-0.24219 1.0234,-0.64453 l 2.4375,-4.8789 2.3594,4.7266 c 0.28906,0.5625 0.97656,0.79297 1.543,0.50781 0.57422,-0.27734 0.80469,-0.96484 0.51953,-1.543 l -3.3828,-6.7773 c -0.39062,-0.78125 -1.668,-0.78125 -2.0586,0 l -3.4727,6.9375 c -0.28516,0.57031 -0.05469,1.2578 0.51172,1.5469 z m 13.711,16.223 c 2.6328,0 4.7734,-2.1406 4.7734,-4.7734 0,-2.6328 -2.1406,-4.7734 -4.7734,-4.7734 -2.6328,0 -4.7734,2.1406 -4.7734,4.7734 0,2.6328 2.1406,4.7734 4.7734,4.7734 z"
     id="path1"
     style="fill:#ffffff" />
</svg>
