<?xml version="1.0" encoding="UTF-8" standalone="no"?>
<svg
   viewBox="0 0 64 64"
   x="0px"
   y="0px"
   version="1.1"
   id="svg22"
   sodipodi:docname="magic.svg"
   width="64"
   height="64"
   inkscape:version="1.3.2 (091e20e, 2023-11-25, custom)"
   xmlns:inkscape="http://www.inkscape.org/namespaces/inkscape"
   xmlns:sodipodi="http://sodipodi.sourceforge.net/DTD/sodipodi-0.dtd"
   xmlns="http://www.w3.org/2000/svg"
   xmlns:svg="http://www.w3.org/2000/svg">
  <defs
     id="defs22" />
  <sodipodi:namedview
     id="namedview22"
     pagecolor="#ffffff"
     bordercolor="#111111"
     borderopacity="1"
     inkscape:showpageshadow="0"
     inkscape:pageopacity="0"
     inkscape:pagecheckerboard="1"
     inkscape:deskcolor="#d1d1d1"
     inkscape:zoom="14.6625"
     inkscape:cx="32.02046"
     inkscape:cy="34.543905"
     inkscape:window-width="2560"
     inkscape:window-height="1369"
     inkscape:window-x="-8"
     inkscape:window-y="-8"
     inkscape:window-maximized="1"
     inkscape:current-layer="svg22" />
  <g
     id="g21"
     style="fill:#ffffff">
    <path
       d="m 38.526,30.9 3.685,2.764 -2.239,-4.478 A 10.452,10.452 0 0 1 38.526,30.9 Z"
       id="path1"
       style="fill:#ffffff" />
    <path
       d="M 44,42 H 16 v 6 h 28 z m -22,4 h -4 v -2 h 4 z m 14,0 H 24 v -2 h 12 z m 6,0 h -4 v -2 h 4 z"
       id="path2"
       style="fill:#ffffff" />
    <path
       d="M 35.666,32.833 37.566,36 H 42 l -5.11,-3.833 a 10.784,10.784 0 0 1 -1.224,0.666 z"
       id="path3"
       style="fill:#ffffff" />
    <path
       d="M 32.966,15.168 31,11.236 v 8.823 a 10.292,10.292 0 0 1 1.239,0.194 z"
       id="path4"
       style="fill:#ffffff" />
    <path
       d="m 34.17,20.882 a 13.44,13.44 0 0 1 2.275,1.245 l -1.908,-3.816 z"
       id="path5"
       style="fill:#ffffff" />
    <path
       d="M 44,8 H 31.618 L 44,32.764 Z m -5,7 h -2 v -2 h 2 z m 3,4 h -2 v -2 h 2 z"
       id="path6"
       style="fill:#ffffff" />
    <path
       d="m 25.463,18.311 -1.908,3.816 a 13.44,13.44 0 0 1 2.275,-1.245 z"
       id="path7"
       style="fill:#ffffff" />
    <path
       d="m 38.856,27.133 a 16.679,16.679 0 0 0 -2.212,-2.324 6.93,6.93 0 0 1 -0.417,5.373 8.4,8.4 0 0 0 2.629,-3.049 z"
       id="path8"
       style="fill:#ffffff" />
    <circle
       cx="30"
       cy="27"
       r="1"
       id="circle8"
       style="fill:#ffffff" />
    <path
       d="m 18,36 h 4.435 l 1.9,-3.167 a 10.784,10.784 0 0 1 -1.224,-0.666 z"
       id="path9"
       style="fill:#ffffff" />
    <path
       d="M 17.789,33.659 21.474,30.9 a 10.452,10.452 0 0 1 -1.446,-1.714 z"
       id="path10"
       style="fill:#ffffff" />
    <path
       d="M 31,33.953 V 36 h 4.234 L 33.747,33.522 A 13.97,13.97 0 0 1 31,33.953 Z"
       id="path11"
       style="fill:#ffffff" />
    <path
       d="M 24.766,36 H 29 v -2.047 a 13.97,13.97 0 0 1 -2.747,-0.431 z"
       id="path12"
       style="fill:#ffffff" />
    <path
       d="M 16,8 V 32.764 L 28.382,8 Z m 4,10 h -2 v -2 h 2 z m -1,-5 v -2 h 2 v 2 z"
       id="path13"
       style="fill:#ffffff" />
    <path
       d="M 10,52 V 4.1 A 5.009,5.009 0 0 0 6,9 v 3.487 A 4.08,4.08 0 0 1 8,12 v 2 A 1.883,1.883 0 0 0 6,16 V 38.487 A 4.08,4.08 0 0 1 8,38 v 2 a 1.883,1.883 0 0 0 -2,2 v 1.487 A 4.08,4.08 0 0 1 8,43 v 2 a 1.883,1.883 0 0 0 -2,2 v 6.026 A 4.948,4.948 0 0 1 9,52 Z"
       id="path14"
       style="fill:#ffffff" />
    <path
       d="m 19.553,56.105 a 1,1 0 0 1 0.894,0 L 23,57.382 V 54 h -6 v 3.382 z"
       id="path15"
       style="fill:#ffffff" />
    <path
       d="M 48,4 H 12 V 52 H 48 Z M 46,50 H 14 V 40 H 46 Z M 46,38 H 14 V 6 h 32 z"
       id="path16"
       style="fill:#ffffff" />
    <path
       d="M 20,58.118 16.447,59.9 A 1,1 0 0 1 15,59 V 58 H 8 v -2 h 7 V 54 H 9 a 3,3 0 0 0 0,6 h 15 a 1,1 0 0 1 -0.447,-0.1 z"
       id="path17"
       style="fill:#ffffff" />
    <rect
       x="25"
       y="54"
       width="33"
       height="2"
       id="rect17"
       style="fill:#ffffff" />
    <path
       d="m 25,59 a 1,1 0 0 1 -1,1 H 58 V 58 H 25 Z"
       id="path18"
       style="fill:#ffffff" />
    <polygon
       points="54,52 58,52 58,39 56,39 56,37 58,37 58,18 56,18 56,16 58,16 58,12 56,12 56,10 58,10 58,4 54,4 "
       id="polygon18"
       style="fill:#ffffff" />
    <path
       d="m 21.142,27.136 a 8.285,8.285 0 0 0 2.642,3.07 6.936,6.936 0 0 1 -0.428,-5.4 16.635,16.635 0 0 0 -2.214,2.33 z"
       id="path19"
       style="fill:#ffffff" />
    <path
       d="M 27.761,20.253 A 10.292,10.292 0 0 1 29,20.059 v -8.823 l -1.966,3.932 z"
       id="path20"
       style="fill:#ffffff" />
    <path
       d="m 25,27 a 5,5 0 1 0 5,-5 5.006,5.006 0 0 0 -5,5 z m 5,-3 a 3,3 0 1 1 -3,3 3,3 0 0 1 3,-3 z"
       id="path21"
       style="fill:#ffffff" />
    <rect
       x="50"
       y="4"
       width="2"
       height="48"
       id="rect21"
       style="fill:#ffffff" />
  </g>
</svg>
