<?xml version="1.0" encoding="UTF-8" standalone="no"?>
<svg
   data-name="Layer 1"
   viewBox="0 0 500 500"
   x="0px"
   y="0px"
   version="1.1"
   id="svg15"
   sodipodi:docname="martial-arts.svg"
   width="500"
   height="500"
   inkscape:version="1.3.2 (091e20e, 2023-11-25, custom)"
   xmlns:inkscape="http://www.inkscape.org/namespaces/inkscape"
   xmlns:sodipodi="http://sodipodi.sourceforge.net/DTD/sodipodi-0.dtd"
   xmlns="http://www.w3.org/2000/svg"
   xmlns:svg="http://www.w3.org/2000/svg">
  <defs
     id="defs15" />
  <sodipodi:namedview
     id="namedview15"
     pagecolor="#ffffff"
     bordercolor="#111111"
     borderopacity="1"
     inkscape:showpageshadow="0"
     inkscape:pageopacity="0"
     inkscape:pagecheckerboard="1"
     inkscape:deskcolor="#d1d1d1"
     inkscape:zoom="2.2910156"
     inkscape:cx="249.88917"
     inkscape:cy="256"
     inkscape:window-width="2560"
     inkscape:window-height="1369"
     inkscape:window-x="-8"
     inkscape:window-y="-8"
     inkscape:window-maximized="1"
     inkscape:current-layer="svg15" />
  <polygon
     points="97.385,196.193 117.132,141.105 98.556,139.645 "
     id="polygon1"
     style="fill:#ffffff" />
  <polygon
     points="130.809,270.725 155.693,268.067 152.76,209.822 "
     id="polygon2"
     style="fill:#ffffff" />
  <polygon
     points="21,132.964 21,282.452 53.327,279 43.084,133.845 "
     id="polygon3"
     style="fill:#ffffff" />
  <path
     d="m 168.54,135.192 a 1.2,1.2 0 0 0 -0.895,-0.588 l -34.784,-4.809 a 1.213,1.213 0 0 0 -0.17,-0.011 1.25,1.25 0 0 0 -1.173,0.822 l -52.2,145.618 40.436,-4.318 48.891,-135.653 a 1.2,1.2 0 0 0 -0.105,-1.061 z"
     id="path3"
     style="fill:#ffffff" />
  <path
     d="m 46.306,373.935 22.132,25.757 a 3.754,3.754 0 0 0 6.511,-1.629 l 16.188,-72.81 -6.214,-39.571 -9.353,1 -29.949,83.547 a 3.754,3.754 0 0 0 0.685,3.706 z"
     id="path4"
     style="fill:#ffffff" />
  <path
     d="m 435.211,140.193 0.419,27.07 h 28.31 a 13.535,13.535 0 1 0 0,-27.07 z"
     id="path5"
     style="fill:#ffffff" />
  <polygon
     points="207.017,228.286 233.421,150.632 207.017,148.463 "
     id="polygon5"
     style="fill:#ffffff" />
  <path
     d="m 88.773,129.032 a 4.919,4.919 0 0 1 0.059,-0.663 3.448,3.448 0 0 0 -3.184,-3.966 c -0.061,0 -0.121,-0.009 -0.181,-0.015 l -29.42,-3 A 3.448,3.448 0 0 0 52.49,125.4 c 0.026,0.157 0.045,0.316 0.056,0.475 l 10.731,152.062 5,-0.533 18.5,-51.6 z"
     id="path6"
     style="fill:#ffffff" />
  <path
     d="m 485.447,236.728 a 16.82,16.82 0 0 0 -16.806,-16.8 h -53.362 a 16.8,16.8 0 1 0 0,33.591 h 53.367 a 16.819,16.819 0 0 0 16.801,-16.791 z"
     id="path7"
     style="fill:#ffffff" />
  <path
     d="M 400.389,214.458 A 26.33,26.33 0 0 1 392.6,204.7 33.523,33.523 0 0 1 385.468,194.526 c -7.051,7.388 -16.5,12.89 -27.9,16.22 5.9,5.509 12.478,14.228 12.754,25.868 a 5,5 0 0 1 -4.88,5.117 h -0.121 a 5,5 0 0 1 -5,-4.882 c -0.3,-12.515 -11.527,-20.861 -15.455,-23.4 a 97.725,97.725 0 0 1 -13.283,0.937 c -2.492,0 -4.008,-0.109 -4.173,-0.122 a 5,5 0 0 1 0.758,-9.971 c 0.5,0.036 37.789,2.429 54.282,-21.9 l -2.082,-19.351 a 5,5 0 0 1 9.942,-1.07 l 2.276,21.153 a 23.7,23.7 0 0 0 10.848,17.5 22.626,22.626 0 0 0 19.5,2.472 11.5,11.5 0 0 0 3.223,-1.516 L 425.13,135.172 A 21.557,21.557 0 0 0 414.3,116.527 c -12.678,-7.008 -30.864,-7.37 -51.211,-1.02 -17.884,5.583 -34.935,15.665 -44.5,26.312 A 41.554,41.554 0 0 1 296.4,155.094 v 104.478 a 82.8,82.8 0 0 1 21.854,10.195 72.681,72.681 0 0 0 17.75,8.533 181.807,181.807 0 0 0 55.431,8.287 21.089,21.089 0 0 1 -3.952,-12.29 c 0,-7.143 2.752,-14.645 8.6,-18.866 a 26.767,26.767 0 0 1 4.3,-40.973 z"
     id="path8"
     style="fill:#ffffff" />
  <path
     d="m 406.462,262.043 c -8.718,0.628 -8.978,11.034 -8.978,12.254 a 11.252,11.252 0 0 0 11.244,11.235 h 43.7 a 18.93,18.93 0 0 0 18.915,-18.9 v -3.242 l -56.073,0.136 a 26.822,26.822 0 0 1 -8.808,-1.483 z"
     id="path9"
     style="fill:#ffffff" />
  <path
     d="m 435.784,177.263 0.383,24.713 c 0.093,2.382 -0.778,5.389 -4.54,7.956 h 42.989 A 16.43,16.43 0 0 0 491,193.718 16.377,16.377 0 0 0 474.632,177.184 Z"
     id="path10"
     style="fill:#ffffff" />
  <path
     d="m 94.879,284.619 6.235,39.706 14.986,51.737 a 5.72,5.72 0 0 0 3.735,3.854 l 29.7,9.627 a 5.726,5.726 0 0 0 7.151,-7.4 L 120.188,281.916 Z"
     id="path11"
     style="fill:#ffffff" />
  <path
     d="m 168.182,275.552 h 26.628 a 2.208,2.208 0 0 0 2.207,-2.2 v -134.31 a 4.4,4.4 0 0 0 -4.395,-4.392 h -13.964 a 11.238,11.238 0 0 1 -0.6,4.994 l -16.509,45.8 4.433,88.011 a 2.2,2.2 0 0 0 2.2,2.097 z"
     id="path12"
     style="fill:#ffffff" />
  <path
     d="m 286.4,257.239 v -93.87 l -31.982,94.119 9.4,-0.967 a 82.727,82.727 0 0 1 22.582,0.718 z"
     id="path13"
     style="fill:#ffffff" />
  <path
     d="m 207.017,270.262 26.613,0.793 a 7.425,7.425 0 0 0 7.35,-5.1 l 41.33,-121.631 -35.3,-2.444 -39.993,117.471 z"
     id="path14"
     style="fill:#ffffff" />
</svg>
