<?xml version="1.0" encoding="UTF-8"?>
<svg id="Layer_1" data-name="Layer 1" xmlns="http://www.w3.org/2000/svg" version="1.1" viewBox="0 0 100 100">
  <defs>
    <style>
      .cls-1, .cls-2 {
        fill: #f04e53;
        stroke-width: 0px;
      }

      .cls-1, .cls-3 {
        display: none;
      }

      .cls-3 {
        fill: none;
        stroke: #fff;
        stroke-miterlimit: 10;
        stroke-width: 1.5px;
      }
    </style>
  </defs>
  <path class="cls-2" d="M5,72.54c0,12.35,10.11,22.46,22.46,22.46h45.08c12.35,0,22.46-10.11,22.46-22.46V27.5c0-12.36-10.14-22.5-22.5-22.5H27.46c-12.35,0-22.46,10.11-22.46,22.46v45.08ZM52.63,13.12c11.05,0,18.49,4.27,22.32,10.61l-14.88,5.36c-1.42-2.52-4.71-3.94-8.54-3.94-7.77,0-13.13,5.8-13.13,18.28,3.61-3.28,8.43-5.36,15.65-5.36,13.13,0,24.95,10.62,24.95,25.72s-11.93,25.06-28.45,25.06c-20.9,0-29.55-15.87-29.55-36.55S29.98,13.12,52.63,13.12ZM50.44,76.48c7.11,0,11.49-5.14,11.49-12.91s-4.38-13.02-11.6-13.02-11.71,5.03-11.71,12.91,4.6,13.02,11.82,13.02Z"/>
  <path class="cls-1" d="M5,72.54c0,12.35,10.11,22.46,22.46,22.46h45.08c12.35,0,22.46-10.11,22.46-22.46V27.5c0-12.36-10.14-22.5-22.5-22.5H27.46c-12.35,0-22.46,10.11-22.46,22.46v45.08ZM21.2,71.94l14.36-5.22c2.07,7.07,7.07,9.35,12.4,9.35,7.61,0,13.16-4.57,13.16-13.05,0-8.92-6.09-13.05-12.84-13.05-5.33,0-9.46,2.5-11.97,7.07l-14.68-5.44,4.57-37.2h48.62v13.49h-34.92l-1.63,13.6c3.37-2.39,9.35-3.81,14.47-3.81,12.95,0,25.45,8.48,25.45,25.34s-13.71,25.35-29.37,25.35c-12.62,0-23.06-5.66-27.63-16.43Z"/>
  <path class="cls-1" d="M5,72.54c0,12.35,10.11,22.46,22.46,22.46h45.08c12.35,0,22.46-10.11,22.46-22.46V27.5c0-12.36-10.14-22.5-22.5-22.5H27.46c-12.35,0-22.46,10.11-22.46,22.46v45.08ZM27.54,67.82c11.75-8.22,32.66-22.78,32.66-34.53,0-5.41-4.47-8.22-9.57-8.22-4.37,0-9.05,2.08-10.61,8.53l-14.35-5.2c3.74-9.67,13.42-15.08,25.69-15.08,14.14,0,24.75,7.28,24.75,20.28,0,14.04-12.48,25.58-32.86,37.44h33.18v13H23.06v-13l4.47-3.22Z"/>
  <path class="cls-1" d="M5,72.54c0,12.35,10.11,22.46,22.46,22.46h45.08c12.35,0,22.46-10.11,22.46-22.46V27.5c0-12.36-10.14-22.5-22.5-22.5H27.46c-12.35,0-22.46,10.11-22.46,22.46v45.08ZM52.64,14.74h15.81v40.87h9.57v13.94h-9.57v14.66h-15.81v-14.66H18.84v-11.54L52.64,14.74ZM36,55.61h16.64v-20.18l-16.64,20.18Z"/>
  <path class="cls-1" d="M5,72.54c0,12.35,10.11,22.46,22.46,22.46h45.08c12.35,0,22.46-10.11,22.46-22.46V27.5c0-12.36-10.14-22.5-22.5-22.5H27.46c-12.35,0-22.46,10.11-22.46,22.46v45.08ZM36.33,65.45c1.77,6.76,7.18,9.26,12.9,9.26,6.55,0,10.71-3.33,10.71-9.05,0-8.53-9.05-10.71-19.45-10.71v-11.02c11.96,0,18.62-3.43,18.62-9.57,0-5.41-5.1-8.11-10.82-8.11-5.1,0-9.98,2.18-11.34,8.53l-14.25-5.2c4.06-10.61,15.08-15.08,26.52-15.08,12.69,0,25.79,5.51,25.79,17.99,0,7.49-4.79,13.31-9.67,16.12,6.86,2.6,10.82,9.98,10.82,16.33,0,14.46-13.1,21.53-27.35,21.53-11.75,0-22.57-4.78-26.83-15.81l14.35-5.2Z"/>
  <path class="cls-1" d="M5,72.54c0,12.35,10.11,22.46,22.46,22.46h45.08c12.35,0,22.46-10.11,22.46-22.46V27.5c0-12.36-10.14-22.5-22.5-22.5H27.46c-12.35,0-22.46,10.11-22.46,22.46v45.08ZM27.45,39.75v23.72h-5.39v-16.01s-2.15,16.01-2.15,16.01h-3.82l-2.26-15.64v15.64h-5.4v-23.72h7.98c.24,1.43.48,3.11.73,5.04l.88,6.03,1.42-11.07h8.02ZM39.09,39.75l3.53,23.72h-6.3l-.33-4.26h-2.21l-.37,4.26h-6.38l3.15-23.72h8.91ZM35.82,55c-.31-2.69-.62-6.01-.94-9.96-.63,4.54-1.02,7.86-1.18,9.96h2.12ZM42.16,39.75h4.37c2.91,0,4.88.11,5.91.34s1.87.8,2.52,1.72.97,2.4.97,4.42c0,1.85-.23,3.09-.69,3.72s-1.36,1.02-2.71,1.14c1.22.3,2.04.71,2.46,1.22s.68.97.78,1.4c.1.43.15,1.59.15,3.51v6.25h-5.73v-7.88c0-1.27-.1-2.06-.3-2.36-.2-.3-.73-.45-1.58-.45v10.69h-6.17v-23.72ZM48.33,43.81v5.27c.69,0,1.18-.1,1.46-.29.28-.19.42-.81.42-1.85v-1.3c0-.75-.13-1.25-.4-1.48s-.76-.35-1.47-.35ZM71.48,39.75l-3.14,23.72h-9.37l-3.56-23.72h6.5c.76,6.53,1.3,12.06,1.62,16.58.32-4.57.66-8.63,1.01-12.17l.43-4.41h6.5ZM71.02,39.75h10.28v4.75h-4.12v4.5h3.85v4.51h-3.85v5.21h4.53v4.75h-10.69v-23.72ZM88.16,39.75v18.97h3.75v4.75h-9.92v-23.72h6.17Z"/>
  <rect class="cls-3" x="6.45" y="36.39" width="87" height="30"/>
  <path class="cls-1" d="M5,72.54c0,12.35,10.11,22.46,22.46,22.46h45.08c12.35,0,22.46-10.11,22.46-22.46V27.5c0-12.36-10.14-22.5-22.5-22.5H27.46c-12.35,0-22.46,10.11-22.46,22.46v45.08Z"/>
  <path class="cls-1" d="M5,72.54c0,12.35,10.11,22.46,22.46,22.46h45.08c12.35,0,22.46-10.11,22.46-22.46V27.5c0-12.36-10.14-22.5-22.5-22.5H27.46c-12.35,0-22.46,10.11-22.46,22.46v45.08ZM78.77,79.33h-10.79V27.98l-16.24,51.35h-5.54L29.87,27.98v51.35h-8.64V20.67h16.54l12.29,37.77,12.07-37.77h16.63v58.65Z"/>
</svg>