<?xml version="1.0" encoding="utf-8"?>
<!-- Generator: Adobe Illustrator 28.3.0, SVG Export Plug-In . SVG Version: 6.00 Build 0)  -->
<svg version="1.1" id="Layer_1" xmlns="http://www.w3.org/2000/svg" xmlns:xlink="http://www.w3.org/1999/xlink" x="0px" y="0px"
	 viewBox="0 0 95 95" style="enable-background:new 0 0 95 95;" xml:space="preserve">
<style type="text/css">
	.st0{fill:#FF4A4F;}
	.st1{fill:#FFFFFF;}
	.st2{font-family:'Charter-Black';}
	.st3{font-size:89px;}
</style>
<path class="st0" d="M65.4,5.6H29.6C16.4,5.6,5.7,16.3,5.7,29.5v35.9c0,13.2,10.7,23.9,23.9,23.9h35.9c13.2,0,23.9-10.7,23.9-23.9
	V29.6C89.3,16.3,78.7,5.6,65.4,5.6L65.4,5.6z"/>
<path class="st0" d="M66.8,8.9c10.6,0,19.3,8.7,19.3,19.3v38.6c0,10.6-8.7,19.3-19.3,19.3H28.2c-10.6,0-19.3-8.7-19.3-19.3V28.2
	c0-10.6,8.7-19.3,19.3-19.3L66.8,8.9 M66.8,2.5H28.2C14,2.5,2.5,14,2.5,28.2v38.6C2.5,81,14,92.5,28.2,92.5h38.6
	C81,92.5,92.5,81,92.5,66.8V28.2C92.5,14,81,2.5,66.8,2.5L66.8,2.5z"/>
<text transform="matrix(1 0 0 1 19.8399 76.1842)" class="st1 st2 st3">3</text>
</svg>
