<?xml version="1.0" encoding="UTF-8" standalone="no"?>
<svg
   viewBox="0 0 80 80"
   x="0px"
   y="0px"
   version="1.1"
   id="svg2"
   sodipodi:docname="melee.svg"
   width="80"
   height="80"
   inkscape:version="1.3.2 (091e20e, 2023-11-25, custom)"
   xmlns:inkscape="http://www.inkscape.org/namespaces/inkscape"
   xmlns:sodipodi="http://sodipodi.sourceforge.net/DTD/sodipodi-0.dtd"
   xmlns="http://www.w3.org/2000/svg"
   xmlns:svg="http://www.w3.org/2000/svg"
   xmlns:rdf="http://www.w3.org/1999/02/22-rdf-syntax-ns#"
   xmlns:cc="http://creativecommons.org/ns#"
   xmlns:dc="http://purl.org/dc/elements/1.1/">
  <defs
     id="defs2" />
  <sodipodi:namedview
     id="namedview2"
     pagecolor="#ffffff"
     bordercolor="#111111"
     borderopacity="1"
     inkscape:showpageshadow="0"
     inkscape:pageopacity="0"
     inkscape:pagecheckerboard="1"
     inkscape:deskcolor="#d1d1d1"
     inkscape:zoom="9.384"
     inkscape:cx="50.031969"
     inkscape:cy="62.5"
     inkscape:window-width="2560"
     inkscape:window-height="1369"
     inkscape:window-x="-8"
     inkscape:window-y="-8"
     inkscape:window-maximized="1"
     inkscape:current-layer="svg2" />
  <title
     id="title1">brass knuckles, weapon, knuckles, fight</title>
  <g
     data-name="Brass Knuckles"
     id="g1"
     transform="translate(-10,-10)"
     style="fill:#ffffff">
    <path
       d="m 82.89134,60.02082 -3.59082,-2.367 A 3.16658,3.16658 0 0 1 77.92766,54.4673 l 1.02032,-5.791 a 5.17807,5.17807 0 0 0 -0.58614,-3.426 L 76.42845,41.82335 A 5.18231,5.18231 0 0 0 72.63489,39.24112 C 62.81881,37.89457 62.096,37.19455 60.74368,27.35656 A 5.18353,5.18353 0 0 0 58.166,23.55851 l -3.43067,-1.933 A 5.16491,5.16491 0 0 0 51.3076,21.03704 l -5.78907,1.01972 A 3.1646,3.1646 0 0 1 42.332,20.68547 l -2.368,-3.592 A 11.17712,11.17712 0 0 0 33.24974,12.31925 15.3793,15.3793 0 0 0 18.49389,16.43859 15.81972,15.81972 0 0 0 15.20833,33.928 8.1245,8.1245 0 0 0 16.9177,36.39871 l 5.52207,5.524 a 2.6636,2.6636 0 1 1 -3.76777,3.766 l -1.56,-1.56 a 3.07981,3.07981 0 0 0 -5.07871,3.21 C 14.6427,54.778 20.866,63.6839 29.10716,71.77277 36.98509,79.505 45.797,85.557 52.679,87.96164 a 3.0781,3.0781 0 0 0 3.177,-5.08887 L 54.29661,81.3132 A 2.66429,2.66429 0 1 1 58.064,77.54484 l 5.52051,5.5207 c 4.03468,4.04762 13.81962,4.57 19.96133,-1.57461 6.21375,-6.21036 6.29152,-16.89058 -0.6545,-21.47011 z m -4.50743,16.308 c -3.20616,3.20578 -8.24626,3.805 -11.2,0.85 -2.85234,-2.85253 -2.46992,-7.876 0.85215,-11.198 l 2e-4,-2e-4 c 3.10358,-3.1047 8.16635,-3.88453 11.19961,-0.85176 2.85273,2.85289 2.47051,7.87714 -0.85196,11.19996 z M 71.41028,51.39914 a 9.19364,9.19364 0 0 1 -2.74844,5.84355 c -3.32207,3.32188 -8.34531,3.7043 -11.19785,0.85215 -2.85332,-2.85352 -2.47226,-7.87754 0.84981,-11.1998 3.32383,-3.32207 8.34824,-3.7043 11.20019,-0.85215 a 6.78727,6.78727 0 0 1 1.89629,5.35625 z M 34.004,31.94855 l -3.9e-4,3.9e-4 c -3.18392,3.18545 -8.22545,3.82312 -11.19766,0.85176 -2.85332,-2.85352 -2.47207,-7.87754 0.85,-11.1998 3.10158,-3.10121 8.165,-3.88641 11.2,-0.85 2.99241,2.9928 2.30818,8.0391 -0.85195,11.19765 z m 19.086,9.72227 c -3.32227,3.32187 -8.34629,3.70332 -11.2,0.85 -2.85234,-2.85254 -2.47012,-7.87578 0.85215,-11.19825 3.10358,-3.10469 8.16655,-3.88453 11.1998,-0.85175 2.85271,2.85293 2.47048,7.87718 -0.85195,11.2 z m -22.00918,2.541 a 3.341,3.341 0 0 1 5.53828,0.8961 10.1695,10.1695 0 0 0 5.4179,4.58008 c 0.01465,0.0045 0.0293,0.0084 0.04414,0.01211 3.10488,0.99493 7.20859,5.09883 8.20352,8.20332 0.0037,0.01485 0.0076,0.02969 0.01211,0.04454 a 10.23631,10.23631 0 0 0 4.57773,5.41738 3.34132,3.34132 0 0 1 0.89785,5.53926 C 49.42059,74.96906 40.23602,71.44015 34.3911,65.59523 28.54524,59.74914 25.01556,50.56437 31.08079,44.21183 Z"
       id="path1"
       style="fill:#ffffff" />
  </g>
  <metadata
     id="metadata2">
    <rdf:RDF>
      <cc:Work
         rdf:about="">
        <dc:title>brass knuckles, weapon, knuckles, fight</dc:title>
      </cc:Work>
    </rdf:RDF>
  </metadata>
</svg>
