<?xml version="1.0" encoding="UTF-8" standalone="no"?>
<svg
   version="1.1"
   x="0px"
   y="0px"
   viewBox="0 0 510 520"
   xml:space="preserve"
   id="svg2"
   sodipodi:docname="narrative.svg"
   width="510"
   height="520"
   inkscape:version="1.3.2 (091e20e, 2023-11-25, custom)"
   xmlns:inkscape="http://www.inkscape.org/namespaces/inkscape"
   xmlns:sodipodi="http://sodipodi.sourceforge.net/DTD/sodipodi-0.dtd"
   xmlns="http://www.w3.org/2000/svg"
   xmlns:svg="http://www.w3.org/2000/svg"><defs
     id="defs2" /><sodipodi:namedview
     id="namedview2"
     pagecolor="#ffffff"
     bordercolor="#111111"
     borderopacity="1"
     inkscape:showpageshadow="0"
     inkscape:pageopacity="0"
     inkscape:pagecheckerboard="1"
     inkscape:deskcolor="#d1d1d1"
     inkscape:zoom="1.8619048"
     inkscape:cx="247.86445"
     inkscape:cy="315"
     inkscape:window-width="2560"
     inkscape:window-height="1369"
     inkscape:window-x="-8"
     inkscape:window-y="-8"
     inkscape:window-maximized="1"
     inkscape:current-layer="svg2" /><path
     d="M 497.026,416.174 465.315,374.948 C 463.177,372.17 462,368.709 462,365.202 v -61.623 c 9.123,-1.895 16,-9.993 16,-19.671 v -42.276 c 0,-7.147 -2.212,-13.988 -6.396,-19.782 L 426,158.707 v -27.363 c 0,-13.417 -6.562,-26.02 -17.553,-33.714 L 386,81.917 V 12 c 0,-2.209 -1.791,-4 -4,-4 H 126 c -2.209,0 -4,1.791 -4,4 V 81.917 L 99.553,97.63 C 88.562,105.324 82,117.927 82,131.344 v 27.363 L 36.396,221.85 C 32.212,227.644 30,234.484 30,241.632 v 42.276 c 0,9.677 6.877,17.776 16,19.671 v 61.623 c 0,3.507 -1.177,6.968 -3.315,9.747 L 10.974,416.173 C 7.767,420.343 6,425.536 6,430.798 v 57.216 C 6,501.24 16.76,512 29.986,512 H 478.013 C 491.24,512 502,501.24 502,488.014 v -57.216 c 0,-5.262 -1.767,-10.455 -4.974,-14.624 z M 470,283.908 C 470,290.575 464.576,296 457.909,296 H 366 v -24 h 91.909 c 4.542,0 8.723,-1.533 12.091,-4.084 z M 386,91.683 403.859,104.184 C 412.713,110.381 418,120.535 418,131.343 V 156 H 386 Z M 150,280.868 v -12.102 c 10.484,-27.164 26.199,-50.662 46.73,-69.843 7.78,-7.267 16.263,-13.868 25.27,-19.71 v 22.548 c -11.03,6.741 -21.365,14.568 -30.73,23.316 -17.003,15.884 -30.824,34.6 -41.27,55.791 z M 230,200 v -66.343 l 21.171,21.171 c 1.563,1.563 4.095,1.563 5.657,0 L 278,133.657 V 200 Z m 86.73,25.077 c -9.365,-8.748 -19.7,-16.575 -30.73,-23.316 v -22.548 c 9.007,5.842 17.49,12.443 25.27,19.71 20.531,19.181 36.246,42.679 46.73,69.843 v 12.102 C 347.554,259.677 333.733,240.961 316.73,225.077 Z M 378,232 v -13.067 c 6.166,3.349 15.112,5.067 24,5.067 8.888,0 17.834,-1.719 24,-5.067 V 232 c 0,2.82 -9.112,8 -24,8 -14.888,0 -24,-5.18 -24,-8 z m 24,-32 c 14.888,0 24,5.18 24,8 0,2.82 -9.112,8 -24,8 -14.888,0 -24,-5.18 -24,-8 0,-2.82 9.112,-8 24,-8 z M 130,16 H 378 V 192 H 315.545 C 306.493,183.688 296.571,176.221 286,169.761 V 124 c 0,-1.618 -0.975,-3.076 -2.469,-3.695 -1.496,-0.619 -3.215,-0.277 -4.359,0.867 L 254,146.343 228.829,121.172 c -1.144,-1.144 -2.865,-1.485 -4.359,-0.867 -1.495,0.619 -2.47,2.077 -2.47,3.695 v 45.761 c -10.571,6.46 -20.494,13.927 -29.545,22.239 H 130 Z m 0,192 c 0,2.82 -9.112,8 -24,8 -14.888,0 -24,-5.18 -24,-8 0,-2.82 9.112,-8 24,-8 14.888,0 24,5.18 24,8 z m 0,10.933 V 232 c 0,2.82 -9.112,8 -24,8 -14.888,0 -24,-5.18 -24,-8 v -13.067 c 6.166,3.349 15.112,5.067 24,5.067 8.888,0 17.834,-1.719 24,-5.067 z M 90,131.344 c 0,-10.809 5.286,-20.962 14.141,-27.159 L 122,91.683 V 156 H 90 Z M 38,283.908 V 267.916 C 41.369,270.467 45.549,272 50.091,272 H 142 v 24 H 50.091 C 43.424,296 38,290.575 38,283.908 Z M 17.315,421.051 49.026,379.827 C 52.234,375.657 54,370.464 54,365.202 V 304 h 91.571 c 35.537,7.961 72.015,12 108.429,12 36.417,0 72.895,-4.039 108.429,-12 H 454 v 61.202 c 0,5.262 1.767,10.455 4.974,14.624 l 31.711,41.226 c 1.849,2.403 2.975,5.317 3.247,8.329 -0.695,8.216 -7.635,14.62 -15.918,14.62 H 347.851 c 3.82,-4.257 6.149,-9.877 6.149,-16.033 V 420 h 84 c 2.209,0 4,-1.791 4,-4 0,-2.209 -1.791,-4 -4,-4 h -20 v -8.198 c 13.74,-1.348 24,-9.56 24,-19.802 0,-11.215 -12.299,-20 -28,-20 -7.91,0 -14.954,2.231 -20,5.878 v -10.077 c 13.74,-1.348 24,-9.56 24,-19.802 0,-11.215 -12.299,-20 -28,-20 -15.701,0 -28,8.785 -28,20 0,10.242 10.26,18.454 24,19.802 V 380 h -24.54 c -2.527,-9.235 -13.683,-16 -27.46,-16 -7.91,0 -14.954,2.231 -20,5.878 v -10.077 c 13.74,-1.348 24,-9.56 24,-19.802 0,-11.215 -12.299,-20 -28,-20 -15.701,0 -28,8.785 -28,20 0,10.242 10.26,18.454 24,19.802 V 380 h -24.54 c -2.527,-9.235 -13.683,-16 -27.46,-16 -13.777,0 -24.933,6.765 -27.46,16 H 202 v -20.198 c 13.74,-1.348 24,-9.56 24,-19.802 0,-11.215 -12.299,-20 -28,-20 -15.701,0 -28,8.785 -28,20 0,10.242 10.26,18.454 24,19.802 v 10.077 c -5.046,-3.647 -12.09,-5.878 -20,-5.878 -13.778,0 -24.933,6.765 -27.46,16 H 122 v -20.198 c 13.74,-1.348 24,-9.56 24,-19.802 0,-11.215 -12.299,-20 -28,-20 -15.701,0 -28,8.785 -28,20 0,10.242 10.26,18.454 24,19.802 V 369.88 C 108.954,366.231 101.91,364 94,364 c -15.701,0 -28,8.785 -28,20 0,10.242 10.26,18.454 24,19.802 V 412 H 70 c -2.209,0 -4,1.791 -4,4 0,2.209 1.791,4 4,4 h 84 v 7.967 c 0,6.156 2.329,11.777 6.149,16.033 H 29.986 c -8.284,0 -15.223,-6.403 -15.918,-14.62 0.272,-3.012 1.398,-5.926 3.247,-8.329 z M 98,403.802 c 11.897,-1.167 21.183,-7.479 23.46,-15.802 h 25.08 c 1.476,5.393 5.896,9.939 12.061,12.792 -2.841,2.889 -4.6,6.846 -4.6,11.208 H 98 Z M 338,420 H 170 c -4.411,0 -8,-3.589 -8,-8 0,-4.411 3.589,-8 8,-8 h 168 c 4.411,0 8,3.589 8,8 0,4.411 -3.589,8 -8,8 z m 8,5.835 c -0.397,8.61 -6.064,15.25 -16.034,18.165 H 178.034 c -10.195,-1.887 -15.525,-7.962 -16.034,-18.165 2.357,1.368 5.084,2.165 8,2.165 h 168 c 2.916,0 5.643,-0.797 8,-2.165 z M 201.46,388 h 25.08 c 0.813,2.97 2.517,5.684 4.915,8 h -34.909 c 2.398,-2.316 4.101,-5.03 4.914,-8 z m 109.994,8 h -34.909 c 2.398,-2.316 4.102,-5.03 4.915,-8 h 25.08 c 0.813,2.97 2.516,5.684 4.914,8 z M 410,403.802 V 412 h -56 c 0,-4.362 -1.759,-8.319 -4.6,-11.208 6.165,-2.853 10.585,-7.399 12.061,-12.792 h 25.08 c 2.276,8.322 11.562,14.635 23.459,15.802 z"
     id="path1"
     style="fill:#ffffff" /></svg>
