<?xml version="1.0" encoding="UTF-8" standalone="no"?>
<svg
   data-name="Layer 1"
   viewBox="0 0 93 93.999996"
   x="0px"
   y="0px"
   version="1.1"
   id="svg2"
   sodipodi:docname="origin.svg"
   width="93"
   height="94"
   inkscape:version="1.3.2 (091e20e, 2023-11-25, custom)"
   xmlns:inkscape="http://www.inkscape.org/namespaces/inkscape"
   xmlns:sodipodi="http://sodipodi.sourceforge.net/DTD/sodipodi-0.dtd"
   xmlns="http://www.w3.org/2000/svg"
   xmlns:svg="http://www.w3.org/2000/svg"
   xmlns:rdf="http://www.w3.org/1999/02/22-rdf-syntax-ns#"
   xmlns:cc="http://creativecommons.org/ns#"
   xmlns:dc="http://purl.org/dc/elements/1.1/">
  <sodipodi:namedview
     id="namedview2"
     pagecolor="#ffffff"
     bordercolor="#111111"
     borderopacity="1"
     inkscape:showpageshadow="0"
     inkscape:pageopacity="0"
     inkscape:pagecheckerboard="1"
     inkscape:deskcolor="#d1d1d1"
     inkscape:zoom="9.384"
     inkscape:cx="50.031969"
     inkscape:cy="37.137681"
     inkscape:window-width="2560"
     inkscape:window-height="1369"
     inkscape:window-x="-8"
     inkscape:window-y="-8"
     inkscape:window-maximized="1"
     inkscape:current-layer="svg2" />
  <defs
     id="defs1">
    <style
       id="style1">.cls-1{fill-rule:evenodd;}</style>
  </defs>
  <title
     id="title1">a</title>
  <path
     class="cls-1"
     d="m 62.035257,64.925921 a 91.622,91.622 0 0 0 -25.376,-12.665 130.2,130.2 0 0 0 -33.2109995,-6.144 v 13.872 q 0.958,-0.033 1.952,-0.055 1.808,-0.039 3.2179995,-0.039 a 134.144,134.144 0 0 1 45.291,7.552 q 3.939,-1.382 8.126,-2.521 z m 3.033,1.7 q 3.315,-0.828 6.763,-1.493 a 136.943,136.943 0 0 1 17.573,-2.2 v 28.549 c -6.978,-9.27 -18.116,-17.126 -31.95,-22.682 q 3.67,-1.182 7.544,-2.154 c 0.024,-0.005 0.047,-0.011 0.07,-0.018 z m 10.719,25.415 c -7.589,-6.306 -17.464,-11.551 -28.9,-15.291 a 133.429,133.429 0 0 0 -41.2329995,-6.288 c -0.84,0 -1.4,0 -1.7,0 l -0.507,0.007 v 21.572 z m -72.3389995,-23.975 v -5.667 q 1.014,-0.036 2,-0.058 1.372,-0.03 3.1709995,-0.03 a 131.562,131.562 0 0 1 44.807,7.523 1.262,1.262 0 0 0 0.134,0.049 q 1.406,0.515 2.775,1.061 c 13.081,5.218 23.667,12.513 30.457,21.097 h -7.328 c -8.071,-7.331 -19.008,-13.39 -31.829,-17.585 a 135.837,135.837 0 0 0 -41.9809995,-6.415 c -0.3,0 -0.877,0 -1.718,0.015 l -0.488,0.006 z m 85.9559995,-14.278 v 6.733 a 139.424,139.424 0 0 0 -18.026,2.245 q -3.234,0.623 -6.356,1.389 a 76.708,76.708 0 0 0 -7.437,-5.075 124.783,124.783 0 0 1 14.66,-3.433 138.492,138.492 0 0 1 17.159,-1.859 z m -34.667,3.653 q -2.9,-1.6 -6.034,-3.043 a 119.852,119.852 0 0 1 18.607,-5.117 138.465,138.465 0 0 1 22.094,-2.4 v 4.5 a 141.045,141.045 0 0 0 -17.565,1.891 126.173,126.173 0 0 0 -17.1,4.171 z m 8.6,-9.8 a 118.815,118.815 0 0 0 -17.767,5.376 q -3.928,-1.653 -8.151,-3.047 -3.828,-1.263 -7.876,-2.3 a 19.5,19.5 0 0 1 -2,-4.606 19.663,19.663 0 1 1 35.8,4.576 z m -15.7,-39.349 a 1.208,1.208 0 1 1 -2.416,0 V 3.2489207 a 1.208,1.208 0 1 1 2.416,0 V 8.288921 Z m -14.824,3.32 a 1.206,1.206 0 0 1 -2.087,1.209 l -2.52,-4.365 a 1.206,1.206 0 0 1 2.086,-1.2090003 l 2.52,4.3650003 z m -11.168,10.29 a 1.2052655,1.2052655 0 0 1 -1.208,2.086 l -4.365,-2.52 a 1.2052655,1.2052655 0 1 1 1.208,-2.086 z m -4.531,14.491 a 1.208,1.208 0 0 1 0,2.416 h -5.04 a 1.208,1.208 0 0 1 0,-2.416 z m 58.624,2.416 a 1.208,1.208 0 1 1 0,-2.416 h 5.04 a 1.208,1.208 0 0 1 0,2.416 z m -3.323,-14.821 a 1.2052655,1.2052655 0 1 1 -1.208,-2.086 l 4.364,-2.52 a 1.206,1.206 0 1 1 1.209,2.086 z m -10.289,-11.167 a 1.206,1.206 0 0 1 -2.086,-1.209 l 2.52,-4.3650003 a 1.206,1.206 0 0 1 2.086,1.2090003 z"
     id="path1"
     style="fill:#ffffff" />
  <metadata
     id="metadata2">
    <rdf:RDF>
      <cc:Work
         rdf:about="">
        <dc:title>a</dc:title>
      </cc:Work>
    </rdf:RDF>
  </metadata>
</svg>
