<?xml version="1.0" encoding="UTF-8" standalone="no"?>
<svg
   version="1.1"
   x="0px"
   y="0px"
   viewBox="0 0 85 85"
   enable-background="new 0 0 100 100"
   xml:space="preserve"
   id="svg5"
   sodipodi:docname="portal.svg"
   width="85"
   height="85"
   inkscape:version="1.3.2 (091e20e, 2023-11-25, custom)"
   xmlns:inkscape="http://www.inkscape.org/namespaces/inkscape"
   xmlns:sodipodi="http://sodipodi.sourceforge.net/DTD/sodipodi-0.dtd"
   xmlns="http://www.w3.org/2000/svg"
   xmlns:svg="http://www.w3.org/2000/svg"
   xmlns:ns="http://ns.adobe.com/SaveForWeb/1.0/"><defs
     id="defs5" /><sodipodi:namedview
     id="namedview5"
     pagecolor="#ffffff"
     bordercolor="#111111"
     borderopacity="1"
     inkscape:showpageshadow="0"
     inkscape:pageopacity="0"
     inkscape:pagecheckerboard="1"
     inkscape:deskcolor="#d1d1d1"
     inkscape:zoom="9.384"
     inkscape:cx="50.031969"
     inkscape:cy="62.819693"
     inkscape:window-width="2560"
     inkscape:window-height="1369"
     inkscape:window-x="-8"
     inkscape:window-y="-8"
     inkscape:window-maximized="1"
     inkscape:current-layer="svg5" /><metadata
     id="metadata1"><ns:sfw><ns:slices /><ns:sliceSourceBounds
         width="83.865"
         height="59.316"
         x="378.567"
         y="267.842"
         bottomLeftOrigin="true" /></ns:sfw></metadata><g
     id="g4"
     transform="translate(-7.4671782,-8)"
     style="fill:#ffffff"><path
       d="m 28.417,28.701 c 4.055,0 7.728,1.268 10.801,3.529 0.404,0.298 0.794,0.618 1.177,0.949 0.732,-0.975 1.815,-1.541 2.959,-1.633 0.173,-0.021 0.352,-0.033 0.526,-0.03 3.451,0.053 12.355,0.547 13.745,0.596 1.948,0.07 3.529,1.58 3.529,3.531 0,1.947 -1.582,3.441 -3.529,3.527 -4.626,0.203 -8.681,0.429 -10.172,0.513 0,0.028 -0.006,0.056 -0.004,0.084 0.057,0.826 0.769,1.469 1.6,1.395 0.045,-0.003 4.633,-0.313 8.643,-0.493 2.227,-0.099 4.045,-1.54 4.692,-3.487 2.402,-0.079 5.337,-0.174 7.995,-0.256 -3.27,4.631 -7.504,10.637 -9.585,13.578 0,0 -1.114,-0.032 -1.153,-0.035 -0.424,-0.029 -0.77,0.288 -0.795,0.702 -0.026,0.413 0.288,0.77 0.701,0.796 0.358,0.022 4.106,0.348 8.496,0.609 0.48,0.044 0.966,0.088 1.458,0.134 3.903,0.36 6.592,2.735 7.685,5.296 1.319,3.09 0.259,5.276 -2.665,5.292 -5.123,0.027 -40.904,0.607 -46.104,0.61 -0.163,0 -0.524,-0.069 -0.546,-0.075 -2.282,-0.576 -4.054,-4.708 -4.054,-9.729 0,-5.027 1.776,-9.165 4.064,-9.731 0.017,-0.004 0.032,-0.012 0.05,-0.016 0.16,-0.036 0.321,-0.056 0.485,-0.056 0.167,0 2.942,0 4.022,0.002 -0.531,-0.641 -1.123,-1.146 -1.766,-1.501 -0.699,-0.387 -1.454,-0.602 -2.257,-0.602 -3.969,0 -6.85,5.038 -6.85,11.979 0,6.941 2.881,11.979 6.85,11.979 0.911,0 1.76,-0.276 2.534,-0.769 0.678,-0.007 1.46,-0.016 2.31,-0.026 -1.34,1.461 -2.993,2.295 -4.844,2.295 -2.424,0 -4.514,-1.424 -5.997,-3.825 h -2.499 c -1.331,-2.624 -2.104,-5.957 -2.104,-9.729 0,-3.442 0.638,-6.526 1.761,-9.034 l 0.002,-0.002 h 2.537 c 1.494,-2.723 3.702,-4.367 6.3,-4.367 1.539,0 2.942,0.578 4.143,1.611 0.377,0.324 0.729,0.701 1.063,1.112 0.865,-1.315 1.731,-2.632 2.541,-3.862 -0.361,-0.364 -0.737,-0.703 -1.13,-1.012 -1.9,-1.499 -4.142,-2.35 -6.617,-2.35 -7.446,0 -12.85,7.562 -12.85,17.979 0,10.417 5.403,17.979 12.85,17.979 4.366,0 8.02,-2.613 10.304,-6.865 0.56,-0.007 1.129,-0.015 1.713,-0.022 -2.496,5.174 -6.809,8.388 -12.017,8.388 -5.648,0 -10.238,-3.787 -12.605,-9.75 h -2.367 c -1.04,-2.902 -1.627,-6.204 -1.627,-9.804 0,-3.283 0.484,-6.323 1.356,-9.036 h 2.409 c 2.289,-6.316 6.994,-10.367 12.834,-10.367 2.789,0 5.312,0.939 7.446,2.59 0.395,0.306 0.776,0.636 1.144,0.99 1.052,-1.599 1.946,-2.959 2.528,-3.844 -0.379,-0.335 -0.768,-0.655 -1.168,-0.953 -2.837,-2.104 -6.219,-3.283 -9.95,-3.283 -10.923,0 -18.85,10.084 -18.85,23.979 0,13.895 7.927,23.979 18.85,23.979 7.739,0 13.97,-5.065 16.947,-12.957 0.534,-0.008 1.069,-0.016 1.61,-0.023 -3.1,8.793 -9.969,14.48 -18.558,14.48 -11.792,0 -20.35,-10.715 -20.35,-25.479 0,-14.764 8.561,-25.48 20.353,-25.48 z"
       id="path1"
       style="fill:#ffffff" /><path
       d="m 71.356,35.309 c 1.319,-1.05 1.957,-2.489 1.957,-4.31 0,-1.842 -0.728,-3.318 -2.108,-4.37 0,0 4.336,0.091 5.605,0.123 2.346,0.06 4.247,1.901 4.247,4.247 0,2.346 -1.901,4.201 -4.247,4.246 -1.412,0.028 -5.454,0.064 -5.454,0.064 z m -21.05,-9.238 c 0.208,-0.025 0.422,-0.04 0.633,-0.036 4.152,0.063 14.955,0.657 16.627,0.717 2.346,0.085 4.248,1.901 4.248,4.247 0,2.346 -1.902,4.201 -4.248,4.246 -1.254,0.024 -3.04,0.102 -4.932,0.193 -0.11,-2.592 -2.229,-4.696 -4.938,-4.824 l -2.123,-0.106 c -3.011,-0.152 -7.325,-0.369 -10.265,-0.457 0.783,-1.123 1.263,-1.811 1.263,-1.811 0.877,-1.313 2.274,-2.051 3.735,-2.169 z m 36.921,4.477 c -1.676,0.089 -3.244,0.175 -4.679,0.255 -0.104,-3.016 -2.56,-5.438 -5.683,-5.55 -0.48,-0.017 -1.713,-0.078 -3.324,-0.158 -2.301,-0.114 -5.258,-0.261 -7.941,-0.376 0.814,-1.199 1.313,-1.933 1.313,-1.933 0.972,-1.455 2.519,-2.272 4.137,-2.403 0.23,-0.027 0.469,-0.044 0.701,-0.04 4.602,0.07 9.543,0.445 15.476,0.794 2.595,0.152 4.706,2.108 4.706,4.708 0,2.597 -2.111,4.565 -4.706,4.703 z"
       id="path2"
       style="fill:#ffffff" /><path
       d="m 76.865,25.253 c -0.48,-0.017 -1.713,-0.078 -3.324,-0.158 -2.301,-0.114 -5.258,-0.261 -7.941,-0.376 0.814,-1.199 1.313,-1.933 1.313,-1.933 0.972,-1.455 2.519,-2.272 4.137,-2.403 0.23,-0.027 0.469,-0.044 0.701,-0.04 4.602,0.07 9.543,0.445 15.476,0.794 2.595,0.152 4.706,2.108 4.706,4.708 0,2.598 -2.11,4.565 -4.706,4.703 -1.676,0.089 -3.244,0.175 -4.679,0.255 -0.105,-3.016 -2.56,-5.438 -5.683,-5.55 z"
       id="path3"
       style="fill:#ffffff" /><path
       d="m 50.938,26.035 c 4.152,0.063 14.955,0.657 16.627,0.717 2.346,0.085 4.248,1.901 4.248,4.247 0,2.346 -1.902,4.201 -4.248,4.246 -1.254,0.024 -3.04,0.102 -4.932,0.193 -0.11,-2.592 -2.229,-4.696 -4.938,-4.824 L 55.572,30.508 C 52.561,30.356 48.247,30.139 45.307,30.051 46.09,28.928 46.57,28.24 46.57,28.24 c 0.877,-1.313 2.273,-2.051 3.734,-2.169 0.21,-0.025 0.424,-0.04 0.634,-0.036 z"
       id="path4"
       style="fill:#ffffff" /></g></svg>
