<?xml version="1.0" encoding="UTF-8" standalone="no"?>
<!-- Created with Inkscape (http://www.inkscape.org/) -->

<svg
   width="23.812508mm"
   height="23.574377mm"
   viewBox="0 0 23.812508 23.574377"
   version="1.1"
   id="svg1"
   sodipodi:docname="super-powers.svg"
   inkscape:version="1.3.2 (091e20e, 2023-11-25, custom)"
   xmlns:inkscape="http://www.inkscape.org/namespaces/inkscape"
   xmlns:sodipodi="http://sodipodi.sourceforge.net/DTD/sodipodi-0.dtd"
   xmlns="http://www.w3.org/2000/svg"
   xmlns:svg="http://www.w3.org/2000/svg">
  <sodipodi:namedview
     id="namedview1"
     pagecolor="#ffffff"
     bordercolor="#111111"
     borderopacity="1"
     inkscape:showpageshadow="0"
     inkscape:pageopacity="0"
     inkscape:pagecheckerboard="1"
     inkscape:deskcolor="#d1d1d1"
     inkscape:document-units="mm"
     inkscape:zoom="13.164982"
     inkscape:cx="45.005758"
     inkscape:cy="44.550004"
     inkscape:window-width="2560"
     inkscape:window-height="1369"
     inkscape:window-x="-8"
     inkscape:window-y="-8"
     inkscape:window-maximized="1"
     inkscape:current-layer="layer1" />
  <defs
     id="defs1" />
  <g
     inkscape:label="Layer 1"
     inkscape:groupmode="layer"
     id="layer1"
     transform="translate(-61.647916,-79.110418)">
    <path
       d="m 82.973333,84.349166 c -1.984375,-3.175 -5.23875,-5.08 -8.942917,-5.23875 -0.3175,0 -0.661458,0 -0.978958,0 -3.704166,0.15875 -6.958541,2.06375 -8.942916,5.23875 -2.010834,3.227917 -2.275417,7.223125 -0.740834,10.662708 0.185209,0.396875 0.529167,0.687917 0.899584,0.846667 v 2.275417 c 0,0.291041 0.238125,0.529166 0.529166,0.529166 0.291042,0 0.529167,-0.238125 0.529167,-0.529166 v -2.2225 c 0.02646,0 0.07937,-0.02646 0.105833,-0.02646 l 1.613959,-0.661458 v 1.640417 c 0,1.005416 0.396875,1.931458 1.058333,2.592916 0,0.02646 0,0.02646 0,0.05292 v 2.645827 c 0,0.29105 0.238125,0.52917 0.529167,0.52917 0.291041,0 0.529166,-0.23812 0.529166,-0.52917 v -1.95791 c 0.47625,0.23812 1.005417,0.37041 1.5875,0.37041 0.291042,0 0.529167,-0.23812 0.529167,-0.52916 0,-0.291042 -0.238125,-0.529167 -0.529167,-0.529167 -1.455208,0 -2.645833,-1.190625 -2.645833,-2.645833 v -3.122084 c 0.238125,0.105834 0.502708,0.185209 0.79375,0.185209 0.529167,0 0.978958,-0.211667 1.322917,-0.555625 0.291041,0.291041 0.687916,0.502708 1.11125,0.555625 0.05292,0.07937 0.105833,0.132291 0.15875,0.211666 0.343958,0.396875 0.846666,0.608542 1.375833,0.608542 h 1.508125 C 73.9775,95.091249 73.66,95.593958 73.66,96.334791 c 0,0.291042 0.238125,0.529167 0.529166,0.529167 0.105834,0 0.185209,-0.02646 0.264584,-0.07937 0.15875,-0.07937 0.264583,-0.264584 0.264583,-0.449792 0,-0.846667 0.820208,-1.058333 0.899583,-1.058333 0.238125,-0.05292 0.423334,-0.264584 0.423334,-0.529167 v -0.529167 c 0,-0.291041 -0.238125,-0.529166 -0.529167,-0.529166 H 72.86625 c -0.238125,0 -0.423333,-0.105834 -0.582083,-0.264584 -0.15875,-0.15875 -0.238125,-0.396875 -0.211667,-0.608541 0.02646,-0.396875 0.396875,-0.714375 0.846667,-0.714375 H 78.4225 c 0.291041,0 0.529166,0.238125 0.529166,0.529166 v 4.233334 c 0,1.455208 -1.190625,2.645833 -2.645833,2.645833 -0.105833,0 -0.185208,0.02646 -0.264583,0.07937 -0.15875,0.105833 -0.264584,0.264583 -0.264584,0.449794 0,0.29104 0.238125,0.52916 0.529167,0.52916 0.264583,0 0.529167,-0.0264 0.79375,-0.0794 v 1.66687 c 0,0.29105 0.238125,0.52917 0.529167,0.52917 0.291041,0 0.529166,-0.23812 0.529166,-0.52917 v -2.0902 C 79.269166,99.430416 80.01,98.239791 80.01,96.863958 v -1.640417 l 1.613958,0.661458 c 0.02646,0.02646 0.07937,0.02646 0.105833,0.05292 v 2.248958 c 0,0.291042 0.238125,0.529167 0.529167,0.529167 0.291042,0 0.529167,-0.238125 0.529167,-0.529167 v -2.275416 c 0.396875,-0.132292 0.714375,-0.423334 0.899583,-0.846667 1.561042,-3.4925 1.296458,-7.487708 -0.714375,-10.715625 z m -13.255625,7.725833 c 0,0.423334 -0.343958,0.79375 -0.79375,0.79375 -0.449791,0 -0.79375,-0.370416 -0.79375,-0.79375 v -3.704166 c 0,-0.449792 0.343959,-0.79375 0.79375,-0.79375 0.449792,0 0.79375,0.343958 0.79375,0.79375 z m 2.645834,-0.978958 C 71.675625,91.307708 71.12,91.916249 71.040625,92.657083 70.881875,92.524791 70.776042,92.286666 70.776042,92.074999 V 87.3125 c 0,-0.449792 0.343958,-0.79375 0.79375,-0.79375 0.449791,0 0.79375,0.343958 0.79375,0.79375 z m 2.645833,-0.07937 h -1.5875 v -4.7625 c 0,-0.449791 0.343958,-0.79375 0.79375,-0.79375 0.449791,0 0.79375,0.343959 0.79375,0.79375 z m 2.645833,0 h -1.5875 V 87.3125 c 0,-0.449792 0.343958,-0.79375 0.79375,-0.79375 0.449792,0 0.79375,0.343958 0.79375,0.79375 z m 5.106458,3.598333 c -0.132291,0.264584 -0.449791,0.396875 -0.714375,0.291042 l -2.010833,-0.846667 v -1.455208 c 0,-0.79375 -0.582083,-1.42875 -1.322917,-1.561042 V 87.3125 c 0,-1.031875 -0.820208,-1.852084 -1.852083,-1.852084 -0.3175,0 -0.608542,0.07937 -0.873125,0.211667 -0.238125,-0.740833 -0.926042,-1.27 -1.772708,-1.27 -0.846667,0 -1.534583,0.529167 -1.772708,1.27 -0.264584,-0.132292 -0.555625,-0.211667 -0.873125,-0.211667 -0.820209,0 -1.534584,0.529167 -1.772709,1.27 -0.264583,-0.132291 -0.555625,-0.211666 -0.873125,-0.211666 -1.031875,0 -1.852083,0.820208 -1.852083,1.852083 v 5.688541 l -2.010833,0.846667 c -0.264584,0.105833 -0.582084,-0.02646 -0.714375,-0.291042 -1.402292,-3.148541 -1.137709,-6.746874 0.687916,-9.683749 1.772709,-2.883959 4.736042,-4.630209 8.069792,-4.7625 0.291042,0 0.608541,0 0.899583,0 3.33375,0.132291 6.297083,1.852083 8.069792,4.736041 1.825625,2.936875 2.06375,6.561667 0.687916,9.710208 z m -17.409583,6.085416 c 0,0.0265 0,0.0794 0,0.10583 0,0.13229 -0.05292,0.26458 -0.15875,0.37042 -0.105833,0.10583 -0.238125,0.15875 -0.370416,0.15875 -0.07937,0 -0.132292,0 -0.211667,-0.0529 -0.05292,-0.0265 -0.132292,-0.0529 -0.185208,-0.10583 -0.07937,-0.10584 -0.132292,-0.23813 -0.132292,-0.37042 0,-0.0265 0,-0.0794 0,-0.10583 0,-0.0265 0.02646,-0.0794 0.02646,-0.10584 0,-0.0265 0.02646,-0.0529 0.05292,-0.0794 0.02646,-0.0265 0.02646,-0.0529 0.05292,-0.0794 0.02646,-0.0265 0.05292,-0.0529 0.07937,-0.0529 0.02646,-0.0265 0.05292,-0.0265 0.105833,-0.0529 0.02646,0 0.05292,-0.0265 0.105833,-0.0265 0.15875,-0.0265 0.343959,0.0265 0.47625,0.13229 0.02646,0.0265 0.05292,0.0529 0.05292,0.0794 0.02646,0.0265 0.02646,0.0529 0.05292,0.0794 0.02646,0.0265 0.02646,0.0794 0.05292,0.10585 z m -2.804583,0.79375 c 0.105833,0.10583 0.15875,0.23812 0.15875,0.37041 0,0.13229 -0.05292,0.26459 -0.15875,0.37042 -0.105833,0.10583 -0.238125,0.15875 -0.370417,0.15875 -0.132291,0 -0.264583,-0.0529 -0.370416,-0.15875 -0.105834,-0.10583 -0.15875,-0.23813 -0.15875,-0.37042 0,-0.0265 0,-0.0794 0,-0.10583 0,-0.0265 0.02646,-0.0794 0.02646,-0.10583 0,-0.0265 0.02646,-0.0529 0.05292,-0.0794 0.02646,-0.0265 0.02646,-0.0529 0.05292,-0.0794 0.211667,-0.21167 0.582084,-0.21167 0.767292,0 z m 20.267083,-0.79375 c 0,0.0265 0,0.0794 0,0.10583 0,0.13229 -0.05292,0.26458 -0.15875,0.37042 -0.105833,0.10583 -0.238125,0.15875 -0.370417,0.15875 -0.132291,0 -0.264583,-0.0529 -0.370416,-0.15875 -0.105834,-0.10584 -0.15875,-0.23813 -0.15875,-0.37042 0,-0.0265 0,-0.0794 0,-0.10583 0,-0.0265 0.02646,-0.0794 0.02646,-0.10584 0.02646,-0.0265 0.02646,-0.0529 0.05292,-0.0794 0.02646,-0.0265 0.05292,-0.0529 0.05292,-0.0794 0.02646,-0.0265 0.05292,-0.0529 0.07937,-0.0529 0.02646,-0.0265 0.05292,-0.0265 0.07937,-0.0529 0.02646,0 0.05292,-0.0265 0.105834,-0.0265 0.185208,-0.0265 0.343958,0.0265 0.47625,0.13229 0.02646,0.0265 0.05292,0.0529 0.05292,0.0794 0.02646,0.0265 0.02646,0.0529 0.05292,0.0794 0.02646,0.0265 0.05292,0.0794 0.07937,0.10584 z m 2.645833,1.16416 c 0,0.0265 0,0.0794 0,0.10584 0,0.0264 -0.02646,0.0794 -0.02646,0.10583 0,0.0265 -0.02646,0.0529 -0.05292,0.0794 -0.02646,0.0265 -0.05292,0.0529 -0.05292,0.0794 -0.105834,0.10583 -0.238125,0.15875 -0.370417,0.15875 -0.02646,0 -0.07937,0 -0.105833,0 -0.02646,0 -0.07938,-0.0265 -0.105834,-0.0265 -0.02646,0 -0.05292,-0.0265 -0.07937,-0.0529 -0.02646,-0.0264 -0.05292,-0.0529 -0.07938,-0.0529 -0.02646,-0.0265 -0.05292,-0.0529 -0.07937,-0.0794 -0.02646,-0.0265 -0.02646,-0.0529 -0.05292,-0.0794 0,-0.0265 -0.02646,-0.0529 -0.02646,-0.10584 0,-0.0264 0,-0.0794 0,-0.10583 0,-0.0265 0,-0.0794 0,-0.10583 0,-0.0265 0.02646,-0.0794 0.02646,-0.10584 0.02646,-0.0265 0.02646,-0.0529 0.05292,-0.0794 0.02646,-0.0265 0.05292,-0.0529 0.05292,-0.0794 0.185208,-0.1852 0.555625,-0.1852 0.740833,0 0.02646,0.0265 0.05292,0.0529 0.05292,0.0794 0.02646,0.0265 0.02646,0.0529 0.05292,0.0794 0.02646,0.0265 0.02646,0.0529 0.02646,0.10584 0.02646,0 0.02646,0.0529 0.02646,0.0794 z M 65.88125,91.572291 c 0,0.02646 0,0.07937 0,0.105833 0,0.07937 0,0.132292 -0.05292,0.211667 -0.02646,0.05292 -0.05292,0.132292 -0.105833,0.15875 -0.105833,0.105833 -0.238125,0.15875 -0.370417,0.15875 -0.132291,0 -0.264583,-0.05292 -0.370416,-0.15875 -0.05292,-0.05292 -0.07937,-0.105833 -0.105834,-0.15875 -0.05292,-0.07937 -0.05292,-0.132292 -0.05292,-0.211667 0,-0.02646 0,-0.07937 0,-0.105833 0,-0.02646 0.02646,-0.07938 0.02646,-0.105833 0,-0.02646 0.02646,-0.05292 0.05292,-0.07937 0.02646,-0.02646 0.02646,-0.05292 0.05292,-0.07937 0.132292,-0.132292 0.291042,-0.185209 0.47625,-0.132292 0.02646,0 0.05292,0.02646 0.105834,0.02646 0.02646,0.02646 0.05292,0.02646 0.07938,0.05292 0.02646,0.02646 0.05292,0.05292 0.07937,0.05292 0.02646,0.02646 0.05292,0.05292 0.05292,0.07937 0.02646,0.02646 0.02646,0.05292 0.05292,0.07937 0.05292,0.02646 0.05292,0.07937 0.07937,0.105833 z m 14.9225,-3.704166 c 0.105833,0.105833 0.15875,0.238125 0.15875,0.370416 0,0.132292 -0.05292,0.264584 -0.15875,0.370417 -0.02646,0.02646 -0.05292,0.05292 -0.07937,0.05292 -0.02646,0 -0.05292,0.02646 -0.07937,0.05292 -0.02646,0 -0.05292,0.02646 -0.105834,0.02646 -0.02646,0 -0.07937,0 -0.105833,0 -0.132292,0 -0.264583,-0.05292 -0.370417,-0.15875 -0.105833,-0.07937 -0.15875,-0.211667 -0.15875,-0.343959 0,-0.132291 0.05292,-0.264583 0.15875,-0.370416 0.132292,-0.132292 0.291042,-0.185209 0.47625,-0.132292 0.02646,0 0.05292,0.02646 0.105834,0.02646 0.02646,0.02646 0.05292,0.02646 0.07937,0.05292 0.02646,0.02646 0.05292,0.02646 0.07937,0.05292 z"
       id="path1"
       style="stroke-width:0.264583;fill:#ffffff" />
  </g>
</svg>
