<?xml version="1.0" encoding="UTF-8" standalone="no"?>
<svg
   version="1.1"
   x="0px"
   y="0px"
   viewBox="0 0 30 30"
   xml:space="preserve"
   id="svg3"
   sodipodi:docname="tags.svg"
   width="30"
   height="30"
   inkscape:version="1.3.2 (091e20e, 2023-11-25, custom)"
   xmlns:inkscape="http://www.inkscape.org/namespaces/inkscape"
   xmlns:sodipodi="http://sodipodi.sourceforge.net/DTD/sodipodi-0.dtd"
   xmlns="http://www.w3.org/2000/svg"
   xmlns:svg="http://www.w3.org/2000/svg"><defs
     id="defs3" /><sodipodi:namedview
     id="namedview3"
     pagecolor="#ffffff"
     bordercolor="#111111"
     borderopacity="1"
     inkscape:showpageshadow="0"
     inkscape:pageopacity="0"
     inkscape:pagecheckerboard="1"
     inkscape:deskcolor="#d1d1d1"
     inkscape:zoom="20.735906"
     inkscape:cx="0.2652404"
     inkscape:cy="14.491771"
     inkscape:window-width="2560"
     inkscape:window-height="1369"
     inkscape:window-x="-8"
     inkscape:window-y="-8"
     inkscape:window-maximized="1"
     inkscape:current-layer="svg3" /><g
     id="g2"
     transform="translate(-0.77160848,-1.03549)"
     style="fill:#ffffff"><path
       d="M 15.869995,29.099976 C 16.460022,29.700012 17.25,30 18.039978,30 c 0.790039,0 1.580017,-0.299988 2.179993,-0.900024 l 6.130005,-6.130005 C 26.929993,22.390015 27.25,21.609985 27.25,20.789978 c 0,-0.330017 -0.04999,-0.649963 -0.150024,-0.960022 l -5.880005,5.880005 c -0.909973,0.920044 -2.109986,1.369995 -3.309998,1.369995 -1.199951,0 -2.399963,-0.449951 -3.309997,-1.359985 L 4.539978,15.659973 4.5,15.929993 c -0.1599731,0.96997 0.1599731,1.96997 0.8599854,2.659973 z"
       id="path1"
       style="fill:#ffffff" /><path
       d="M 26.76001,13.549988 15.98999,2.789978 C 15.380005,2.1799926 14.52002,1.8999634 13.669983,2.0299682 L 7.6799927,3 C 6.5300293,3.1799927 5.6400146,4.0799561 5.460022,5.2199707 L 4.4899903,11.209961 c -0.1400146,0.850037 0.1500244,1.720032 0.75,2.320007 L 16.01001,24.299988 c 0.520019,0.520019 1.209961,0.779968 1.899963,0.779968 0.690003,0 1.370056,-0.259949 1.900025,-0.779968 l 6.950012,-6.950012 c 1.039978,-1.049988 1.039978,-2.75 0,-3.799988 z M 9.1599731,7.6799927 c -0.5499878,0 -1.0099487,-0.4400024 -1.0099487,-1 0,-0.5499878 0.4499512,-1 1,-1 h 0.00995 c 0.5500488,0 0.9999996,0.4500122 0.9999996,1 0,0.5599975 -0.4499507,1 -0.9999996,1 z m 3.7700199,7.7100223 c -0.26001,0 -0.51001,-0.100037 -0.710022,-0.290039 -0.389954,-0.390015 -0.389954,-1.029969 0,-1.419983 l 3.920044,-3.9100346 c 0.390014,-0.3899536 1.019958,-0.3899536 1.409973,0 0.400024,0.3900146 0.400024,1.0200196 0,1.4100346 l -3.909973,3.919983 c -0.200013,0.190002 -0.450013,0.290039 -0.710022,0.290039 z M 20.460022,14.089966 16.539978,18 c -0.190002,0.200012 -0.449951,0.299988 -0.699951,0.299988 -0.26001,0 -0.51001,-0.09998 -0.710022,-0.299988 -0.390015,-0.390015 -0.390015,-1.02002 0,-1.410034 l 3.919983,-3.919983 c 0.390014,-0.390015 1.020019,-0.390015 1.410034,0 0.389954,0.390015 0.389954,1.030029 0,1.419983 z"
       id="path2"
       style="fill:#ffffff" /></g></svg>
