<?xml version="1.0" encoding="UTF-8" standalone="no"?>
<svg
   version="1.1"
   viewBox="-5 -10 95 95"
   id="svg2"
   sodipodi:docname="trait.svg"
   width="95"
   height="95"
   inkscape:version="1.3.2 (091e20e, 2023-11-25, custom)"
   xmlns:inkscape="http://www.inkscape.org/namespaces/inkscape"
   xmlns:sodipodi="http://sodipodi.sourceforge.net/DTD/sodipodi-0.dtd"
   xmlns="http://www.w3.org/2000/svg"
   xmlns:svg="http://www.w3.org/2000/svg">
  <defs
     id="defs2" />
  <sodipodi:namedview
     id="namedview2"
     pagecolor="#ffffff"
     bordercolor="#111111"
     borderopacity="1"
     inkscape:showpageshadow="0"
     inkscape:pageopacity="0"
     inkscape:pagecheckerboard="1"
     inkscape:deskcolor="#d1d1d1"
     inkscape:zoom="8.6888889"
     inkscape:cx="54.955243"
     inkscape:cy="67.5"
     inkscape:window-width="2560"
     inkscape:window-height="1369"
     inkscape:window-x="-8"
     inkscape:window-y="-8"
     inkscape:window-maximized="1"
     inkscape:current-layer="svg2" />
  <path
     d="m 35.254627,44.453806 h -10.223 c -0.65625,0 -1.1875,-0.53125 -1.1875,-1.1875 0,-3.9531 -3.2031,-7.1562 -7.1523,-7.1562 -3.9531,0 -7.1562004,3.2031 -7.1562004,7.1562 0,0.65625 -0.53125,1.1875 -1.1875,1.1875 h -10.543 v 29.676 c 0.015625,4.2852 3.4844,7.7578 7.7734,7.7734 H 35.254527 v -9.4258 c -4.7656,-0.60156 -8.3398,-4.6523 -8.3398,-9.457 0,-4.8047 3.5742,-8.8594 8.3398,-9.457 z m 10.344,-51.1020004 c 0,-0.65625 0.53125,-1.1875 1.1875,-1.1875 h 30.867 c 5.6016,0.015625 10.141,4.5547 10.152,10.156 V 33.183306 c 0,0.65625 -0.53125,1.1914 -1.1875,1.1914 h -10.617 c -0.60156,4.7617 -4.6562,8.3359 -9.457,8.3359 -4.8047,0 -8.8555,-3.5742 -9.457,-8.3359 h -10.301 c -0.65625,0 -1.1914,-0.53516 -1.1914,-1.1914 v -11.414 c 0,-0.65625 0.53516,-1.1875 1.1914,-1.1875 1.9336,0.05469 3.8047,-0.67188 5.1914,-2.0195 1.3867,-1.34762 2.168,-3.1992 2.168,-5.1289 0,-1.9336 -0.78125,-3.7852004 -2.168,-5.1328004 -1.38675,-1.3476 -3.2578,-2.0742 -5.1914,-2.0195 -0.65625,0 -1.1914,-0.53125 -1.1914,-1.1875 v -11.738 z m -7.9648,51.1020004 h 9.1094 c 0.60156,4.7656 4.6562,8.3398 9.457,8.3398 4.8047,0 8.8555,-3.5742 9.457,-8.3398 h 9.4258 v 29.676 c -0.01172,4.2891 -3.4844,7.7578 -7.7734,7.7734 h -29.676 v -10.543 c 0,-0.65625 -0.53125,-1.1875 -1.1875,-1.1875 -1.9336,0.05469 -3.8047,-0.67188 -5.1914,-2.0195 -1.3867,-1.3477 -2.168,-3.1992 -2.168,-5.1328 0,-1.9297 0.78125,-3.7812 2.168,-5.1289 1.3867,-1.3477 3.2578,-2.0742 5.1914,-2.0195 0.65625,0 1.1875,-0.53125 1.1875,-1.1875 z m -39.8280004,-2.3789 v -29.676 c 0.015625,-4.2852004 3.4844,-7.7578004 7.7734,-7.7734004 H 35.255227 V 15.168506 c 0,0.65625 0.53516,1.1875 1.1914,1.1875 3.8672,0.11328 6.9453,3.2812 6.9453,7.1523 0,3.8672 -3.0781,7.0352 -6.9453,7.1484 -0.65625,0 -1.1914,0.53125 -1.1914,1.1875 v 10.23 h -9.1055 c -0.60156,-4.7656 -4.6562,-8.3359 -9.457,-8.3359 -4.8047,0 -8.8555004,3.5703 -9.4570004,8.3359 z"
     fill-rule="evenodd"
     id="path1"
     style="fill:#ffffff" />
</svg>
