<?xml version="1.0" encoding="UTF-8" standalone="no"?>
<svg
   version="1.1"
   x="0px"
   y="0px"
   viewBox="0 0 80 85"
   enable-background="new 0 0 72 72"
   xml:space="preserve"
   id="svg3"
   sodipodi:docname="weapons.svg"
   width="80"
   height="85"
   inkscape:version="1.3.2 (091e20e, 2023-11-25, custom)"
   xmlns:inkscape="http://www.inkscape.org/namespaces/inkscape"
   xmlns:sodipodi="http://sodipodi.sourceforge.net/DTD/sodipodi-0.dtd"
   xmlns="http://www.w3.org/2000/svg"
   xmlns:svg="http://www.w3.org/2000/svg"><defs
     id="defs3" /><sodipodi:namedview
     id="namedview3"
     pagecolor="#ffffff"
     bordercolor="#111111"
     borderopacity="1"
     inkscape:showpageshadow="0"
     inkscape:pageopacity="0"
     inkscape:pagecheckerboard="1"
     inkscape:deskcolor="#d1d1d1"
     inkscape:zoom="6.5166667"
     inkscape:cx="47.033248"
     inkscape:cy="43.350384"
     inkscape:window-width="2560"
     inkscape:window-height="1369"
     inkscape:window-x="-8"
     inkscape:window-y="-8"
     inkscape:window-maximized="1"
     inkscape:current-layer="svg3" /><path
     fill="#000000"
     d="m 57.2,59.5 c 0,0.1 0,0.1 0,0 -0.5,-0.1 -3.5,-0.9 -4.9,-2.5 0,0 -2.5,-2.6 -3.5,-5.6 0,-0.1 -0.1,-0.2 -0.2,-0.3 L 18.9,21.4 c 0,0 -0.1,-0.1 -0.2,-0.1 L 5,12.6 C 4.7,12.4 4.4,12.7 4.6,13 l 8.7,13.7 c 0,0.1 0.1,0.1 0.1,0.2 l 29.8,29.8 c 0.1,0.1 0.2,0.1 0.3,0.2 3,1 5.6,3.5 5.6,3.5 1.3,1.1 2.1,3.4 2.4,4.3 0.1,0.3 0,0.6 -0.2,0.8 -3.1,2.9 -0.4,4.4 -0.2,4.5 0,0 0,0 0,0 1,-0.1 0.9,-0.9 0.9,-1.1 0,0 0,0 0,0 -0.7,-0.8 -0.1,-1.3 -0.1,-1.3 0.7,-1.2 2.8,0.6 2.9,0.7 0,0 0,0 0,0 0.8,0.5 2.5,0.4 3.1,0.3 0.1,0 0.1,0.1 0.1,0.2 v 0 c -0.1,0.1 0,0.1 0,0.2 0.8,0.2 1,0.9 1,1.2 0,0.1 0.1,0.2 0.2,0.2 1.3,0.1 1.4,1 1.4,1.4 0,0.1 0.1,0.2 0.2,0.2 1.4,0.2 1.6,1.1 1.6,1.5 0,0.1 0.1,0.2 0.2,0.2 1.3,0.1 1.5,1.1 1.5,1.6 0,0.1 0.1,0.2 0.2,0.2 1.1,0.1 1.4,0.8 1.5,1.2 0,0.2 0.2,0.2 0.4,0.1 l 0.2,-0.2 c 0.3,-0.2 0.2,0.2 0.2,0.2 -0.1,0.6 0,1.8 0.1,2.1 0,0 0,0.1 0.1,0.1 l 0.2,0.2 c 0.1,0.1 0.1,0.2 0,0.3 v 0 c -0.1,0.1 -0.1,0.2 0,0.3 l 0.3,0.3 c 0.1,0.1 0.2,0.1 0.3,0 l 0.2,-0.2 c 0.1,-0.1 0.3,-0.1 0.3,0.1 0.2,0.8 -0.3,2.5 -0.4,3 0,0.1 0,0.2 0.1,0.2 2.8,1.4 5.8,-1.3 5.9,-1.4 0,0 0,0 0,0 0.1,-0.1 2.9,-3.2 1.4,-5.9 0,-0.1 -0.1,-0.1 -0.2,-0.1 -0.5,0.2 -2.1,0.6 -3,0.4 -0.1,0 -0.2,-0.2 -0.1,-0.3 L 72,75.7 c 0.1,-0.1 0.1,-0.2 0,-0.3 L 71.7,75 c -0.1,-0.1 -0.2,-0.1 -0.3,0 v 0 c -0.1,0.1 -0.2,0.1 -0.3,0 L 71,74.8 c 0,0 -0.1,0 -0.1,-0.1 -0.3,0 -1.4,-0.2 -2.1,-0.1 0,0 -0.4,0.1 -0.2,-0.2 l 0.2,-0.2 c 0.1,-0.1 0.1,-0.3 -0.1,-0.4 -0.5,-0.1 -1.2,-0.4 -1.2,-1.5 0,-0.1 -0.1,-0.2 -0.2,-0.2 -0.4,0 -1.5,-0.2 -1.6,-1.5 0,-0.1 -0.1,-0.2 -0.2,-0.2 -0.4,0 -1.3,-0.2 -1.5,-1.6 0,-0.1 -0.1,-0.2 -0.2,-0.2 -0.4,0 -1.2,-0.1 -1.4,-1.4 0,-0.1 -0.1,-0.2 -0.2,-0.2 -0.3,0 -1,-0.2 -1.2,-1 0,-0.1 -0.1,-0.1 -0.2,0 v 0 c -0.1,0.1 -0.2,0 -0.2,-0.1 0.1,-0.7 0.2,-2.3 -0.3,-3.1 0,0 0,0 0,0 -0.1,-0.1 -1.9,-2.3 -0.7,-2.9 0,0 0.5,-0.6 1.3,0.1 0,0 0,0 0,0 0.2,0 1,0.1 1.1,-0.9 0,0 0,0 0,0 -0.1,-0.3 -1.7,-3.1 -4.8,0.4 z"
     id="path1"
     style="fill:#ffffff" /><path
     fill="#000000"
     d="m 9.9,83.1 c 0.1,0 0.2,-0.1 0.1,-0.2 0,0 0,-0.1 0,-0.1 0,-0.1 0,-0.2 0.1,-0.2 0.1,-0.1 0.3,-0.2 0.3,-0.4 0,-0.5 -0.1,-1 0.2,-1.3 0,0 0,0 0.1,-0.1 0.2,-0.1 0.5,-0.2 0.7,-0.2 0.1,0 0.2,-0.1 0.2,-0.2 -0.1,-0.9 0.5,-1.5 1.4,-1.6 0.1,0 0.2,-0.1 0.2,-0.2 -0.1,-1 0.4,-1.6 1.3,-1.6 0.1,0 0.2,-0.1 0.2,-0.3 -0.1,-0.8 0.4,-1.5 1.2,-1.5 0.1,0 0.2,-0.1 0.2,-0.3 -0.1,-0.6 0,-1.3 0.7,-1.6 0.2,-0.1 0.5,-0.1 0.8,-0.1 0.1,0 0.3,-0.1 0.2,-0.3 -0.1,-0.6 0,-1.1 0.6,-1.4 0.2,-0.1 0.5,-0.1 0.8,-0.2 0.1,0 0.2,-0.1 0.2,-0.3 -0.1,-0.9 0.5,-1.5 1.4,-1.6 0.1,0 0.2,-0.1 0.2,-0.3 -0.1,-1 0.5,-1.6 1.4,-1.7 0.1,0 0.2,-0.1 0.2,-0.2 -0.1,-1 0.5,-1.7 1.5,-1.8 0.1,0 0.2,-0.1 0.2,-0.2 0,-0.8 0.3,-1.5 1.1,-1.4 0.1,0 0.2,-0.1 0.2,-0.2 0,-0.8 0.5,-1.5 1.3,-1.6 0.1,0 0.2,-0.1 0.2,-0.3 -0.1,-0.3 0,-0.7 0.2,-0.9 0.3,-0.4 0.9,-0.3 1.2,-0.5 0.6,-0.3 1.2,-0.8 1.1,-1.6 0,0 0,0 0,0 -0.1,-0.2 -0.1,-0.5 -0.1,-0.8 0,-0.1 0,-0.1 -0.1,-0.2 -0.1,-0.1 -0.1,-0.2 0,-0.3 L 42,43 c 0.1,-0.1 0.2,-0.3 0.3,-0.5 2.3,-5 7,-10.7 8,-11.9 0.1,-0.1 0.3,-0.1 0.4,0 0.1,0.1 0.3,0.1 0.4,0 L 55,26 c 0.9,-0.9 2.5,-0.7 2.8,-0.6 0,0 0.1,0 0.1,0 l 1.9,1.6 c 0,0 0.1,0.1 0.1,0.1 1.2,5.2 -5.5,10.7 -5.5,10.7 -3.2,1.9 -5.1,5.9 -5.9,8.3 -0.1,0.4 0.3,0.6 0.6,0.4 1.8,-2 5.5,-5.5 10.3,-6.2 6.9,-1 12.5,-6.6 12.5,-6.6 6.4,-6.4 2.9,-10.6 2.9,-10.6 l -6.7,-5.7 c -0.1,-0.1 -0.3,0 -0.3,0.2 l 0.2,2.9 c 0,0 0,0.1 0,0.1 l 0.4,0.8 c 0,0 0.1,0.1 0.1,0.1 0.3,0.1 1.5,0.7 1.3,2.3 -0.3,1.8 -2.6,1.6 -5.9,-1.8 -3,-3.1 -9.8,-8.6 -10.9,-9.4 -0.1,-0.1 -0.2,-0.1 -0.3,0 L 47,19 c 0,0 4.4,-1.2 6.6,0 0.1,0.1 0.1,0.2 0.1,0.3 l -6.6,7.8 c -0.1,0.1 -0.1,0.3 0,0.4 l 0.4,0.3 c 0.1,0.1 0.1,0.2 0,0.4 -1,1.3 -7,8.9 -8.1,12.1 -0.1,0.2 -0.2,0.5 -0.4,0.6 L 26.7,55.3 c -0.1,0.1 -0.2,0.1 -0.3,0 l -0.1,-0.1 c -0.1,0 -0.1,-0.1 -0.2,0 -0.3,0.1 -0.5,0.1 -0.8,0 0,0 0,0 0,0 -0.7,0 -1.2,0.7 -1.4,1.3 -0.1,0.3 0,0.9 -0.3,1.3 -0.2,0.2 -0.6,0.3 -0.9,0.3 -0.1,0 -0.2,0.1 -0.2,0.2 0,0.8 -0.5,1.4 -1.3,1.5 -0.1,0 -0.2,0.2 -0.2,0.3 0.2,0.8 -0.4,1.2 -1.2,1.3 -0.1,0 -0.2,0.1 -0.2,0.2 0.1,1 -0.5,1.7 -1.5,1.8 -0.1,0 -0.2,0.1 -0.2,0.3 0.1,0.9 -0.4,1.7 -1.4,1.7 -0.1,0 -0.2,0.1 -0.2,0.2 0.1,0.9 -0.4,1.6 -1.4,1.7 -0.1,0 -0.2,0.1 -0.2,0.3 0,0.3 0,0.5 0,0.8 -0.2,0.6 -0.7,0.8 -1.3,0.8 -0.1,0 -0.3,0.1 -0.2,0.3 0.1,0.3 0.1,0.5 0,0.8 -0.2,0.7 -0.8,0.9 -1.5,0.9 -0.1,0 -0.3,0.1 -0.2,0.3 0.1,0.8 -0.4,1.4 -1.2,1.4 -0.1,0 -0.2,0.1 -0.2,0.2 0.1,0.9 -0.4,1.5 -1.3,1.5 -0.1,0 -0.2,0.1 -0.2,0.2 0.1,0.9 -0.4,1.5 -1.3,1.6 -0.1,0 -0.2,0.1 -0.2,0.3 0,0.3 0,0.5 -0.1,0.8 0,0 0,0.1 0,0.1 -0.3,0.3 -0.8,0.4 -1.3,0.4 -0.1,0 -0.2,0.2 -0.3,0.4 0,0.1 -0.1,0.1 -0.2,0.1 0,0 -0.1,0 -0.2,0 -0.1,0 -0.2,0.1 -0.2,0.2 -0.1,1.5 0,3 0.7,4.4 0,0 0.1,0.1 0.1,0.1 1.3,0.5 2.8,0.3 4.3,-0.1 z"
     id="path2"
     style="fill:#ffffff" /><path
     fill-rule="evenodd"
     clip-rule="evenodd"
     d="m 47.626617,2.5930949 h -1.666 v 3.991 c 0,0.705 -0.577,1.283 -1.283,1.283 h -19.959 V 8.225095 c 0,0.313 0.257,0.568 0.57,0.568 h 22.339 c 0.313,0 0.568,-0.256 0.568,-0.568 V 3.1600949 c -10e-4,-0.311 -0.256,-0.567 -0.569,-0.567 z m -9.108,6.2920001 c 0.108,0.187 0.17,0.403 0.17,0.633 v 2.178 c 0,0.693 -0.568,1.261 -1.26,1.261 h -2.889 c -0.356,0 -0.68,-0.149 -0.908,-0.389 l 0.096,-0.242 0.104,-0.261 c 0.185,0.319 0.531,0.536 0.926,0.536 h 2.453 c 0.587,0 1.07,-0.481 1.07,-1.07 v -1.849 c 0,-0.314 -0.138,-0.6 -0.358,-0.797 z m -10.935,-7.1920001 h 0.573 c 0.156,0 0.284,0.128 0.284,0.283 v 0.461 h -1.14 v -0.461 c 0.001,-0.155 0.127,-0.283 0.283,-0.283 z m 30.51,0.012 h 0.742 c 0.044,0 0.059,0.041 0.08,0.08 l 0.214,0.384 h 0.103 c 0.142,0 0.259,0.116 0.259,0.258 v 0.138 c -0.034,-0.004 -0.069,-0.006 -0.103,-0.006 h -3.066 v -0.132 c 0,-0.142 0.115,-0.258 0.257,-0.258 h 1.432 v -0.384 c 0,-0.044 0.037,-0.08 0.082,-0.08 z m 2.424,2.32 h 1.537 c 0.232,0 0.422,0.191 0.422,0.425 v 0.653 c 0,0.233 -0.19,0.424 -0.422,0.424 h -1.537 z m -1.129,-1.329 h -11.149 c 0.146,0.104 0.241,0.272 0.241,0.464 v 3.777 h 10.908 c 0.529,0 0.962,-0.433 0.962,-0.964 v -2.314 c 0,-0.529 -0.433,-0.963 -0.962,-0.963 z m -24.417,6.3510001 c 0.229,1.367 0.637,2.38 1.407,2.693 -0.34,-0.824 -0.325,-1.702 0.433,-2.693 z m -9.428,0 c 0.829,0.266 1.549,0.641 1.67,1.615 -0.101,1.662 -2.066,2.431 -3.899,8.527 -0.127,0.387 -0.16,0.725 0.218,0.849 1.601,0.363 3.201,0.728 4.804,1.09 0.992,0.214 1.895,0.188 2.521,-0.607 -0.099,-0.229 -0.199,-0.459 -0.298,-0.688 l 2.582,-6.475 0.293,-0.737 0.156,-0.388 0.303,-0.76 0.967,-2.426 z m 13.619,3.185 v 1.136 0.722 h 6.354 v -5.067 h -6.354 v 2.581 0.366 z m 5.776,2.791 v 9.973 c 0,0.126 -0.103,0.229 -0.229,0.229 h -3.301 c -0.126,0 -0.23,-0.103 -0.23,-0.229 v -9.973 z m -2.018,1.341 c -0.214,0 -0.388,0.176 -0.388,0.391 v 6.74 c 0,0.214 0.174,0.39 0.388,0.39 h 0.275 c 0.215,0 0.39,-0.176 0.39,-0.39 v -6.74 c 0,-0.215 -0.175,-0.391 -0.39,-0.391 z m 2.7,-3.145 c 0.199,-0.028 0.593,0.286 0.591,0.481 l -0.005,0.796 c -0.001,0.195 -0.165,0.355 -0.367,0.355 h -6.745 c -0.203,0 -0.368,-0.16 -0.368,-0.355 v 0 c 0,-0.181 0.144,-0.308 0.325,-0.348 v 0.091 h 6.569 z m -0.025,-10.6260001 v 3.766 c 0,0.644 -0.527,1.169 -1.169,1.169 h -19.708 v -4.368 c 0,-0.312 0.257,-0.567 0.57,-0.567 z"
     id="path1-8"
     style="fill:#ffffff" /></svg>
