<?xml version="1.0" encoding="UTF-8" standalone="no"?>
<svg
   version="1.1"
   viewBox="-5 -10 98 98"
   id="svg2"
   sodipodi:docname="work.svg"
   width="98"
   height="98"
   inkscape:version="1.3.2 (091e20e, 2023-11-25, custom)"
   xmlns:inkscape="http://www.inkscape.org/namespaces/inkscape"
   xmlns:sodipodi="http://sodipodi.sourceforge.net/DTD/sodipodi-0.dtd"
   xmlns="http://www.w3.org/2000/svg"
   xmlns:svg="http://www.w3.org/2000/svg">
  <defs
     id="defs2" />
  <sodipodi:namedview
     id="namedview2"
     pagecolor="#ffffff"
     bordercolor="#111111"
     borderopacity="1"
     inkscape:showpageshadow="0"
     inkscape:pageopacity="0"
     inkscape:pagecheckerboard="1"
     inkscape:deskcolor="#d1d1d1"
     inkscape:zoom="8.6888889"
     inkscape:cx="54.955243"
     inkscape:cy="62.436061"
     inkscape:window-width="2560"
     inkscape:window-height="1369"
     inkscape:window-x="-8"
     inkscape:window-y="-8"
     inkscape:window-maximized="1"
     inkscape:current-layer="svg2" />
  <path
     d="m 64.312,5.625 c 0,-2.5898 -2.0977,-4.6875 -4.6875,-4.6875 h -31.25 c -2.5898,0 -4.6875,2.0977 -4.6875,4.6875 v 10.938 h -9.375 v 62.5 h 59.375 v -62.5 h -9.375 z m -31.25,4.6875 h 21.875 v 6.25 H 33.062 Z m -31.25,6.25 h 9.375 v 62.5 H 1.812 c -2.5898,0 -4.6875,-2.0977 -4.6875,-4.6875 V 21.25 c 0,-2.5898 2.0977,-4.6875 4.6875,-4.6875 z M 90.874,21.25 v 53.125 c 0,2.5898 -2.0977,4.6875 -4.6875,4.6875 h -9.375 v -62.5 h 9.375 c 2.5898,0 4.6875,2.0977 4.6875,4.6875 z"
     id="path1"
     style="fill:#ffffff" />
</svg>
